<?xml version="1.0" encoding="utf-8"?>
<!-- Generator: Adobe Illustrator 16.0.0, SVG Export Plug-In . SVG Version: 6.00 Build 0)  -->
<!DOCTYPE svg PUBLIC "-//W3C//DTD SVG 1.1//EN" "http://www.w3.org/Graphics/SVG/1.1/DTD/svg11.dtd">
<svg version="1.1" id="Layer_1" xmlns="http://www.w3.org/2000/svg" xmlns:xlink="http://www.w3.org/1999/xlink" x="0px" y="0px"
	 width="1000px" height="1000px" viewBox="0 0 1000 1000" enable-background="new 0 0 1000 1000" xml:space="preserve">
<g>
	<path fill="#510D3F" d="M973.345,36.845c0,308.099,0,616.196,0,924.296c-12.486,18.153-26.106,34.802-50.003,37.896
		c-3.811,0.043-7.618,0.131-11.429,0.131c-210.365,0.009-420.733,0.021-631.099,0.003c-74.949-0.003-149.896-0.079-224.845-0.122
		c-9.068-1.126-17.84-2.783-25.747-8.059c-15.395-10.273-25.728-23.94-29.982-42.05c0-298.948,0-597.896,0-896.843
		c1.099-6.2,1.104-12.859,4.841-18.165C16.802,17.289,30.592,3.322,52.096,0.24c290.814,0,581.625,0,872.441,0
		c11.53,2.476,21.966,6.948,30.826,15.115C962.33,21.782,967.009,29.974,973.345,36.845z M34.983,499.841
		c0,144.875-0.006,289.752,0.009,434.628c0.003,16.512,13.238,29.712,29.678,29.712c281.62,0.004,563.24,0.004,844.86-0.004
		c19.549,0,32.005-12.558,32.005-32.336c0.012-287.973,0.012-575.948,0-863.923c0-18.128-12.993-31.332-30.813-31.428
		c-8.134-0.043-16.267-0.041-24.4-0.041c-268.658-0.003-537.316-0.003-805.974,0C73.232,36.454,66.116,36.546,59,36.528
		c-3.695-0.006-6.703,1.263-9.787,3.432c-9.899,6.961-14.445,15.746-14.421,28.3C35.089,212.121,34.983,355.981,34.983,499.841z"/>
	<path fill-rule="evenodd" clip-rule="evenodd" fill="#AA2483" d="M34.983,499.841c0-143.86,0.106-287.721-0.19-431.581
		c-0.024-12.555,4.521-21.339,14.421-28.3c3.084-2.169,6.091-3.438,9.787-3.432c7.116,0.019,14.231-0.074,21.347-0.078
		c268.658-0.003,537.316-0.003,805.974,0c8.134,0,16.267-0.003,24.4,0.041c17.82,0.096,30.813,13.3,30.813,31.428
		c0.012,287.975,0.012,575.95,0,863.923c0,19.778-12.456,32.336-32.005,32.336c-281.62,0.008-563.24,0.008-844.86,0.004
		c-16.44,0-29.675-13.2-29.678-29.712C34.977,789.594,34.983,644.717,34.983,499.841z M909.35,498.23
		c0-134.477,0-268.95-0.003-403.423c0-14.349-10.997-25.477-25.138-25.477C620.342,69.334,356.475,69.34,92.61,69.346
		c-14.827,0-25.824,10.917-25.824,25.709c-0.013,268.187,0.111,536.373-0.345,804.56c-0.024,15.705,11.882,28.971,28.664,28.937
		c262.595-0.512,525.189-0.354,787.784-0.352c15.934,0,26.432-10.497,26.436-26.547C909.334,767.181,909.331,632.705,909.35,498.23z
		"/>
	<path fill-rule="evenodd" clip-rule="evenodd" fill="#F9F6F5" d="M909.338,498.23c-0.007,134.475-0.004,268.95-0.013,403.423
		c-0.004,16.05-10.502,26.547-26.436,26.547c-262.595-0.003-525.189-0.16-787.784,0.352c-16.781,0.034-28.688-13.231-28.664-28.937
		c0.456-268.187,0.332-536.373,0.345-804.56c0-14.792,10.997-25.709,25.824-25.709c263.864-0.006,527.731-0.012,791.599-0.015
		c14.141,0,25.138,11.128,25.138,25.477C909.35,229.281,909.35,363.754,909.338,498.23z M70.926,498.436
		c0,132.18-0.003,264.357,0.002,396.534c0.004,20.416,9.111,29.606,29.263,29.606c260.289-0.015,520.577-0.027,780.867-0.043
		c12.94,0,24.363-11.624,24.363-24.931c0.002-267.153-0.007-534.303-0.026-801.457c0-13.932-11.083-24.977-24.939-24.977
		C619.404,73.16,358.352,73.148,97.3,73.136c-16.217,0-26.349,10.163-26.349,26.479C70.948,232.555,70.951,365.495,70.926,498.436z"
		/>
	<path fill-rule="evenodd" clip-rule="evenodd" fill="#AA2483" d="M70.938,498.436c0.012-132.941,0.01-265.881,0.012-398.821
		c0-16.316,10.132-26.479,26.349-26.479c261.052,0.012,522.104,0.024,783.156,0.034c13.856,0,24.939,11.044,24.939,24.977
		c0.02,267.154,0.028,534.303,0.026,801.457c0,13.307-11.423,24.931-24.363,24.931c-260.29,0.016-520.578,0.028-780.867,0.043
		c-20.152,0-29.259-9.19-29.263-29.606C70.923,762.793,70.926,630.616,70.938,498.436z M441.49,179.004
		c-0.341,0.09-0.679,0.18-1.018,0.268c0,5.074,0.366,10.181-0.081,15.218c-0.822,9.269,0.475,18.578-1.794,27.896
		c-1.337,5.501-1.613,3.953-4.686,1.288c-12.595-10.933-21.209-25.247-32.394-37.358c-16.741-18.135-34.017-35.583-55.636-48.083
		c-26.578-15.36-40.632-0.726-45.693,20.443c-2.051,8.586-3.379,17.402-3.906,26.33c-1.27,21.433,0.977,42.662,3.832,63.769
		c3.203,23.68,5.25,47.884,17.688,69.187c13.086,22.42,20.756,46.826,26.777,71.778c7.497,31.047,5.362,61.922-3.308,92.507
		c-1.12,3.949-3.212,4.518-7.1,4.812c-17.501,1.319-34.954,3.276-52.424,5.002c-0.003,0.882-0.006,1.763-0.01,2.645
		c17.766,0,35.531,0,53.3,0c-0.01,0.955-0.016,1.914-0.025,2.871c-26.354,1.672-52.709,3.348-79.064,5.021
		c22.708,4.39,45.817,3.406,68.622,5.864c-7.792,2.458-16.102,0.047-25.849,4.034c11.642,0.567,21.07,0.677,30.298,3.59
		c-20.406,6.877-42.069,5.971-61.82,11.557c19-1.409,38.758-2.874,60.56-4.49c-5.796,3.462-10.12,4.412-14.603,4.921
		c-2.718,0.309-5.62,0.58-7.472,2.812c-2.377,2.858-5.632,4.931-8.745,5.828c-8.31,2.396-16.925,3.724-24.195,5.226
		c1.943,0.968,5.135,0.143,8.335-0.034c11.417-0.628,22.833-1.244,34.249-1.874c2.874-0.159,5.747-0.581,5.362,3.934
		c-0.689,8.074,2.588,14.253,9.365,18.665c2.755,1.795,2.982,3.802,0.32,6.039c-5.663,4.75-11.435,9.217-18.901,10.867
		c-18.532,4.099-37.073,8.162-55.558,12.463c-16.052,3.735-28.62,12.36-33.964,28.445c-3.702,11.132-3.929,22.994-2.29,34.668
		c3.634,25.939,10.206,51.268,16.72,76.576c5.374,20.869,12.372,40.725,33.771,51.555c11.305,5.719,23.764-0.208,24.565-12.999
		c0.173-2.753-0.193-5.591-0.692-8.322c-4.105-22.463-8.366-44.896-12.391-67.372c-0.568-3.184-2.256-7.472,3.457-8.298
		c4.673-0.675,7.379,0.652,8.624,5.925c4.785,20.226,9.973,40.358,15.236,60.47c2.125,8.105,4.515,16.232,12.03,21.396
		c5.093,3.5,9.738,3.43,14.39-1.052c5.204-5.011,5.793-11,4.604-17.56c-4.121-22.709-8.416-45.388-12.236-68.146
		c-0.682-4.076-4.477-9.934,2.728-12.232c6.368-2.029,8.968,0.553,11.273,9.556c4.279,16.688,8.326,33.451,13.157,49.979
		c2.728,9.328,3.606,19.627,11.708,26.752c6.561,5.766,11.798,5.34,17.468-1.329c4.937-5.808,3.947-12.278,2.715-18.813
		c-4.272-22.689-8.716-45.353-12.912-68.058c-1.279-6.927,1.843-9.542,8.394-7.833c3.823,1,4.081,4.354,4.794,7.106
		c5.399,20.872,10.613,41.793,15.879,62.699c1.836,7.292,4.785,13.858,11.069,18.553c4.363,3.256,8.099,2.923,12.334-0.48
		c7.469-6.012,6.408-13.591,4.996-21.569c-4.067-22.997-8.062-46.01-11.863-69.051c-1.179-7.145,2.582-10.052,9.195-7.765
		c3.643,1.261,3.622,4.574,4.316,7.452c4.292,17.748,8.165,35.606,12.946,53.223c2.29,8.438,3.99,17.466,10.917,23.944
		c3.743,3.501,7.609,7.876,13.167,4.829c4.639-2.545,8.4-6.967,8.117-12.674c-0.511-10.339-0.629-20.915-3.003-30.898
		c-3.649-15.341-5.52-30.927-8.285-46.384c-0.503-2.814-2.216-6.989,3.277-7.594c4.497-0.496,7.435,0.338,8.794,5.713
		c5.54,21.901,11.684,43.645,17.43,65.494c1.636,6.225,5.192,10.988,10.026,14.879c4.276,3.439,8.395,3.277,13.149-0.04
		c7.848-5.475,7.666-12.688,6.069-20.7c-4.866-24.413-9.686-48.837-14.39-73.28c-0.564-2.936-2.365-6.954,3.376-7.243
		c4.189-0.205,7.666-0.496,8.968,5.315c3.782,16.832,7.916,33.601,12.573,50.209c2.924,10.426,4.224,21.635,11.144,30.54
		c3.604,4.637,8.041,8.853,14.862,6.777c6.029-1.834,10.949-9.194,10.566-16.15c-0.256-4.54-1.095-9.077-2.016-13.545
		c-4.04-19.649-8.192-39.278-12.334-58.904c-0.823-3.898-1.686-8.084,3.588-9.173c4.858-1.002,8.916,0.103,10.401,6.033
		c5.057,20.169,10.373,40.274,15.573,60.411c1.758,6.802,4.835,12.763,10.364,17.346c4.199,3.476,8.228,3.313,12.422,0.087
		c6.104-4.697,6.719-11.344,5.521-17.97c-4.471-24.691-6.132-49.87-13.328-74.115c-1.361-4.589-2.54-5.61-6.94-4.657
		c-19.574,4.239-39.41,4.105-59.118,1.766c-10.141-1.204-20.154-4.239-29.705-11.109c5.063-0.919,8.442,0.161,11.863,1.114
		c5.573,1.552,11.354,4.732,16.723,4.165c13.973-1.484,27.883,1.703,42.046-1.781c11.9-2.927,24.236-4.714,35.044-10.34
		c27.745-14.449,47.859-38.793,43.245-72.623c-1.977-14.479-6.095-28.35-12.912-41.206c-11.693-22.039-18.445-44.971-15.686-70.211
		c3.381-30.959,10.705-60.908,21.885-89.975c6.629-17.225,15.386-33.65,17.564-52.51c3.269-28.316,1.288-56.334-3.901-84.123
		c-3.49-18.703-8.248-37.207-17.396-54.162c-7.863-14.576-19.487-19.727-32.856-9.868c-6.268,4.62-11.63,10.007-16.682,15.742
		c-15.871,18.014-28.374,38.314-39.654,59.412c-5.31,9.93-11.736,18.963-19.959,26.759c-2.849,2.7-6.538,4.117-9.573,3.748
		c-3.321-0.407-2.256-5.005-2.812-7.773c-1.673-8.347-2.998-16.766-4.459-25.157c-0.541,0.052-1.08,0.102-1.62,0.155
		c-0.348,4.779-0.698,9.558-1.046,14.336c-0.479,0.019-0.952,0.034-1.428,0.05c-1.979-10.731-3.956-21.464-5.933-32.198
		c-0.624,0.059-1.248,0.121-1.868,0.183c0,8.602,0,17.203,0,25.805c-5.999-20.204-5.483-41.24-9.81-62.04
		c-2.153,21.572,2.669,42.515,0.454,63.613c-4.471-6.352-2.731-14.305-6.436-22.835c-0.437,6.557-0.741,11.094-1.048,15.686
		c-6.641-10.048-7.442-21.783-10.548-33.668c-6.665,9.716-1.797,19.932-4.589,30.671c-4.636-17.458-4.94-34.017-8.205-50.072
		c-1.471,21.433,1.691,42.739-0.09,64.29c-1.747-8.918-3.497-17.836-5.244-26.752c-0.564,0.081-1.133,0.165-1.698,0.248
		c0,7.969,0,15.938,0,23.903c-0.577,0.077-1.154,0.155-1.731,0.233c-2.898-14.241-5.797-28.481-8.692-42.721
		c-0.745,0.094-1.49,0.189-2.234,0.282c0,11.761,0,23.519,0,35.276c-0.559,0.034-1.117,0.072-1.676,0.105
		C444.606,193.099,443.048,186.051,441.49,179.004z M767.155,648.61c0.614-11.608-1.97-22.308-3.55-33.082
		c-4.99-33.974-13.004-67.217-24.93-99.477c-9.201-24.894-33.749-27.186-52.862-20.486c-6.994,2.454-11.633,10.454-10.638,16.952
		c3.225,21.079-0.375,40.874-10.312,59.651c-4.312,8.154-5.541,16.751-3.282,25.817c6.256,25.111,12.419,50.243,18.652,75.356
		c1.478,5.954,3.286,11.77,8.268,15.919c3.694,3.078,7.596,5.151,12.514,2.733c4.771-2.349,8.359-5.278,8.426-11.369
		c0.053-5.16-0.888-10.08-1.881-15.06c-4.369-21.901-8.729-43.807-12.987-65.73c-0.883-4.564-1.809-9.53,4.819-10.74
		c6.247-1.139,8.559,2.821,9.915,7.997c3.218,12.261,6.455,24.521,9.807,36.747c3.22,11.745,6.36,23.524,9.984,35.146
		c2.237,7.165,7.067,13.394,14.656,13.858c6.755,0.413,12.426-3.687,16.899-9.746C766.368,665.364,768.102,657.186,767.155,648.61z
		 M337.127,846.281c0-4.868,0.208-8.117-0.041-11.334c-0.593-7.592-3.746-9.516-10.349-5.909c-4.562,2.491-8.68,5.8-13.163,8.863
		c-2.697-8.912-4.512-9.651-11.746-4.959c-3.184,2.063-6.054,4.607-9.129,6.852c-6.784,4.946-13.61,9.843-20.676,14.947
		c-2.786-6.945,2.477-11.274,3.188-16.633c0.496-3.748,0.797-7.04-2.561-9.541c-3.721-2.769-6.066,0.402-8.707,2.115
		c-10.02,6.505-19.05,14.278-28.264,21.831c-1.92,1.572-3.525,5.244-6.814,3.447c-3.301-1.803-1.284-4.899-0.8-7.535
		c0.272-1.494,0.257-3.041,0.496-4.543c0.683-4.281,0.053-8.197-3.497-11.037c-3.727-2.979-7.429-0.856-10.662,0.921
		c-4.971,2.729-9.613,6.062-15.183,9.646c-0.109-1.95-0.081-2.902-0.224-3.827c-1.353-8.748-5.092-9.867-12.434-5.16
		c-6.439,4.127-12.354,8.832-18.371,13.468c-2.061,1.589-4.705,3.274-6.948,2.008c-2.777-1.563-0.761-4.506-0.295-6.831
		c2.52-12.617,9.015-24.005,11.379-36.693c0.438-2.364,1.416-5.061-1.231-5.958c-4.621-1.563-3.352-3.758-1.704-6.682
		c1.645-2.926,1.961-6.274,2.125-9.585c0.438-8.909-4.196-12.114-12.487-8.593c-1.861,0.792-3.655,1.776-5.406,2.802
		c-18.906,11.084-32.296,27.259-42.006,46.554c-4.543,9.03-7.354,18.709-7.32,29.043c0.021,6.848,3.062,11.294,9.269,14.209
		c6.129,2.879,10.203-0.544,14.256-3.93c5.315-4.443,8.781-10.448,12.654-16.086c3.562-5.183,7.112-10.377,10.668-15.568
		c0.931,4.965,0.133,9.139-0.329,13.347c-0.534,4.851,0.797,9.153,5.083,11.928c4.345,2.814,8.236,0.98,11.889-1.719
		c2.023-1.499,3.9-3.243,6.066-4.496c4.312-2.502,6.799-7.979,12.555-8.53c0.608,2.38-0.375,3.506-1.36,4.685
		c-1.942,2.334-4.391,4.472-5.569,7.156c-1.275,2.908-1.999,6.526,0.949,9.188c3.615,3.271,5.449-0.719,7.522-2.351
		c7.524-5.919,14.771-12.19,22.308-18.086c1.676-1.309,4.45-2.688,6.132-2.163c2.598,0.812,1.132,3.917,1.272,6.066
		c0.202,3.035,0.118,6.116,0.624,9.099c1.403,8.267,8.63,11.188,15.115,5.992c4.736-3.789,9.071-8.081,13.614-12.114
		c5.361-4.761,10.063-10.565,18.305-11.973c-1.055,6.914-5.694,12.429-4.416,19.323c1.213,6.545,3.87,8.339,10.035,5.801
		c6.694-2.753,11.668-7.96,17.104-12.524c4.953-4.155,10.234-7.92,15.37-11.854c-0.289,6.969-5.372,10.501-7.892,15.567
		c-1.821,3.665-0.425,6.854,1.856,8.813c3.556,3.053,4.49-1.474,6.036-3.308c6.507-7.712,12.869-15.547,20.406-22.305
		c1.102-0.988,2.495-2.341,3.947-1.208c0.729,0.568,0.779,2.253,0.795,3.436c0.062,4.814-0.307,9.656,0.093,14.438
		c0.195,2.33,0.763,5.387,3.652,6.153c2.855,0.757,3.584-2.269,5.123-3.782c5.074-4.981,8.63-11.554,15.459-15.569
		c0.46,5.11,1.008,9.344,1.167,13.593c0.149,3.999,2.84,5.74,5.819,7.282c3.144,1.63,4.481-1.321,6.374-2.753
		c2.421-1.83,4.742-3.791,7.162-5.622c4.667-3.531,7.373-2.612,7.684,3.493c0.329,6.439,3.541,9.449,9.917,7.545
		c3.783-1.133,7.349-2.726,10.383-5.81c4.422-4.496,9.626-8.224,15.082-12.766c0.275,3.369,0.338,5.867,0.713,8.319
		c0.534,3.491,2.771,5.521,6.262,5.337c6.057-0.322,16.201-9.647,17.893-15.909c0.419-1.555,1.015-3.022-0.627-4.031
		c-1.462-0.896-2.271,0.553-3.156,1.33c-3.714,3.287-7.391,6.62-11.695,10.482c-1.877-7.18,2.138-11.49,4.369-16.34
		c1.046-2.269,2.355-4.912-0.245-6.954c-2.066-1.624-4.363-1.226-6.125,0.751c-1.537,1.723-2.768,2.159-3.87-0.32
		c-2.185-4.918-6.139-3.646-9.766-2.547c-10.591,3.211-18.773,9.849-25.374,18.547c-1.809,2.386-3.227,6.437-5.468,0.348
		c-1.164-3.171-2.926-1.834-4.68-0.6c-3.367,2.371-6.069,8.373-10.181,6.217c-3.662-1.925-0.81-7.911-1.4-12.072
		c-0.943-6.677-4.815-9.002-10.432-5.238C347.708,837.221,343.246,841.349,337.127,846.281z M618.297,800.847
		c5.665-13.253,0.033-24.14-14.023-26.34c-10.73-1.679-21.374-1.002-31.764,3.127c-13.833,5.504-27.062,11.725-35.996,24.302
		c-6.083,8.562-4.679,13.951,5.108,17.445c7.59,2.713,15.657,4.054,23.372,6.465c6.12,1.914,14.52,2.165,16.278,9.353
		c1.822,7.444-6.712,10.364-10.728,15.227c-1.022,1.237-3.019,1.717-4.616,2.433c-10.175,4.568-20.382,9.063-30.532,13.682
		c-2.427,1.104-6.383,1.942-5.396,5.284c1.095,3.699,4.847,3.444,8.393,2.833c10.924-1.886,20.807-6.144,30.271-11.816
		c6.219-3.726,12.239-7.674,19.242-10.317c9.394-3.547,19.659-6.436,25.699-15.892c1.053-1.645,2.25-4.214,5.386-3.429
		c-0.966,8.53-2.387,17.126,1.274,25.381c1.013,2.273,2.378,5.147,5.43,4.211c2.714-0.835,3.293-3.785,2.949-6.394
		c-0.258-1.947-0.894-4.008-1.933-5.663c-2.334-3.711-2.008-7.524-1.865-11.683c0.399-11.779,7.062-20.148,13.849-28.79
		c2.833-3.609,5.391-5.958,10.163-6.852c5.318-0.996,12.35,1.725,15.53-5.751c0.481-1.136,2.595-1.585,1.781-3.537
		c-0.875-2.095-2.647-2.25-4.456-1.821c-3.435,0.816-6.792,1.986-10.252,2.668c-2.107,0.419-4.931,1.118-4.6-2.796
		c0.245-2.87,0.426-6.305-2.908-6.877c-2.947-0.505-4.753,2.686-6.112,5.007C633.434,797.813,627.022,801.191,618.297,800.847z
		 M823.164,840.99c-0.589,3.768-1.127,6.21-1.332,8.684c-0.569,6.955,7.488,15.559,13.754,13.865
		c10.879-2.948,20.186-8.429,23.878-20.127c3.044-9.643-2.796-21.541-11.233-21.706c-5.998-0.114-11.895,2.308-16.949,5.809
		c-9.982,6.91-19.785,14.082-29.725,21.054c-1.331,0.935-2.864,2.861-4.636,1.418c-1.579-1.284-0.348-3.354-0.196-5.055
		c0.349-3.833,3.414-6.678,3.733-10.668c0.289-3.581,1.552-7.093-2.377-9.496c-3.702-2.265-6.048,0.521-8.851,2.191
		c-8.559,5.098-15.741,11.833-22.891,18.646c-1.949,1.859-4.211,4.881-6.947,3.463c-2.629-1.358-1.553-5.046-1.497-7.705
		c0.104-4.611,1.142-9.079,3.708-13.027c8.249-12.694,17.254-24.964,22.229-39.483c1.264-3.693,3.888-8.242-1.256-10.696
		c-4.746-2.262-6.647,2.641-8.687,5.468c-7.866,10.895-15.299,22.075-19.9,34.863c-0.922,2.566-2.557,6.222-5.734,3.892
		c-5.658-4.151-10.132-1.12-14.669,1.271c-9.216,4.866-14.488,13.204-18.562,22.424c-2.898,6.554-1.74,13.958,2.979,16.5
		c6.193,3.334,10.062-1.344,13.716-5.035c5.269-5.32,10.091-11.083,15.586-17.196c0.692,2.102,1.226,3.246,1.44,4.447
		c2.089,11.667,9.136,14.729,18.652,7.643c4.64-3.457,8.698-7.724,12.828-11.82c2.85-2.823,5.769-5.17,10.747-5.606
		c-1.4,3.865-2.569,6.873-3.575,9.936c-1.801,5.467-3.345,11.822,1.899,15.423c4.819,3.313,9.442-1.493,13.585-4.162
		C809.624,851.855,814.583,845.097,823.164,840.99z M663.791,686.5c0.268-7.237-2.262-14.014-3.507-20.994
		c-3.024-16.957-6.399-33.854-9.467-50.806c-1.285-7.109-6.223-11.38-12.224-13.078c-5.806-1.644-11.441,1.487-15.577,6.034
		c-5.146,5.666-6.709,12.183-4.58,19.772c3.223,11.481,5.8,23.146,9.045,34.621c2.898,10.238,4.811,20.835,9.588,30.441
		c2.803,5.626,7.15,10.394,13.754,10.806c5.256,0.329,8.396-4.044,11.317-7.997C664.139,692.591,663.688,689.513,663.791,686.5z
		 M718.697,185.35c-2.513,24.571,20.636,53.423,50.857,52.977c30.159-0.444,52.847-21.883,53.082-51.691
		c0.235-29.868-21.76-52.067-51.177-52.905C739.669,132.824,717.332,160.417,718.697,185.35z M482.296,836.233
		c-7.134,6.44-11.851,13.577-18.87,18.108c-2.045,1.32-4.735,4.75-7.68,1.315c-2.452-2.853-1.257-12.528,1.729-12.934
		c3.919-0.53,4.946-3.393,6.544-5.648c10.929-15.444,22.922-30.243,28.949-48.669c1.39-4.258,1.865-7.659-2.75-9.356
		c-4.462-1.642-8.238,0.02-10.976,4.054c-5.238,7.72-10.82,15.217-15.82,23.083c-8.558,13.471-16.26,27.345-16.431,43.986
		c-0.053,5.024,1.108,10.247,5.601,12.335c4.711,2.191,10.116,2.055,14.417-2.669c3.553-3.906,7.788-7.186,11.652-10.819
		C481.942,845.938,483.757,842.316,482.296,836.233z M694.034,851.555c1.344-5.955,2.694-10.483,5.029-14.694
		c1.775-3.195,0.99-5.513-1.854-7.875c-2.985-2.477-5.72-3.313-8.765-0.667c-3.053,2.653-5.935,5.505-8.852,8.312
		c-6.12,5.896-12.302,11.706-20.227,16.648c-0.522-7.528,4.486-11.51,7.137-16.399c1.878-3.46,1.092-5.509-0.968-8.103
		c-2.511-3.162-5.409-2.494-8.127-0.882c-3.477,2.07-6.641,4.655-10.026,6.887c-2.802,1.849-6.588,3.978-4.214,7.524
		c2.2,3.287,4.58-1.39,7.094-1.7c0.429-0.053,0.89,0.18,1.465,0.311c0.291,2.725-1.875,4.474-2.743,6.724
		c-2.42,6.247,2.069,10.156,5.401,13.9c3.926,4.409,6.399-0.461,9.181-2.589c7.363-5.641,13.252-13.059,21.386-18.172
		c1.187,3.78-0.58,6.793-1.129,9.945c-0.742,4.248,2.578,6.34,4.812,8.95c1.309,1.529,2.981,1.684,4.698,0.29
		c6.256-5.091,12.599-10.08,18.795-15.245c1.648-1.374,2.619-3.388,0.562-5.225c-1.886-1.679-3.224,0.08-4.515,1.194
		C704.017,844.271,700.708,848.932,694.034,851.555z M282.676,811.024c2.288-1.146,4.084-2.979,3.836-5.737
		c-0.233-2.566-1.66-5.207-4.5-5.187c-2.573,0.017-4.766,1.63-4.435,4.923C277.888,808.074,279.294,810.193,282.676,811.024z
		 M807.155,806.997c3.229-0.188,4.555-2.142,4.564-4.98c0.005-2.726-1.26-5.208-4.059-5.53c-2.706-0.314-4.925,1.173-4.869,4.403
		C802.842,803.9,803.946,806.274,807.155,806.997z"/>
	<path fill-rule="evenodd" clip-rule="evenodd" fill="#F9F6F5" d="M441.49,179.004c1.558,7.047,3.116,14.095,4.673,21.139
		c0.559-0.034,1.117-0.071,1.676-0.105c0-11.758,0-23.515,0-35.276c0.744-0.093,1.489-0.188,2.234-0.282
		c2.896,14.24,5.794,28.48,8.692,42.721c0.577-0.078,1.154-0.156,1.731-0.233c0-7.965,0-15.935,0-23.903
		c0.565-0.083,1.133-0.167,1.698-0.248c1.747,8.916,3.497,17.834,5.244,26.752c1.781-21.551-1.381-42.857,0.09-64.29
		c3.265,16.055,3.569,32.613,8.205,50.072c2.792-10.74-2.076-20.955,4.589-30.671c3.106,11.885,3.907,23.621,10.548,33.668
		c0.307-4.592,0.611-9.129,1.048-15.686c3.705,8.53,1.965,16.483,6.436,22.835c2.216-21.098-2.606-42.041-0.454-63.613
		c4.326,20.799,3.811,41.836,9.81,62.04c0-8.602,0-17.203,0-25.805c0.62-0.062,1.244-0.124,1.868-0.183
		c1.977,10.733,3.953,21.467,5.933,32.198c0.476-0.016,0.949-0.031,1.428-0.05c0.348-4.778,0.698-9.558,1.046-14.336
		c0.54-0.053,1.079-0.103,1.62-0.155c1.461,8.391,2.786,16.81,4.459,25.157c0.556,2.768-0.51,7.366,2.812,7.773
		c3.035,0.369,6.725-1.048,9.573-3.748c8.223-7.795,14.649-16.829,19.959-26.759c11.28-21.098,23.783-41.398,39.654-59.412
		c5.052-5.734,10.414-11.122,16.682-15.742c13.369-9.859,24.993-4.708,32.856,9.868c9.147,16.955,13.905,35.459,17.396,54.162
		c5.189,27.788,7.17,55.807,3.901,84.123c-2.179,18.86-10.936,35.285-17.564,52.51c-11.18,29.067-18.504,59.016-21.885,89.975
		c-2.76,25.241,3.992,48.172,15.686,70.211c6.817,12.855,10.936,26.727,12.912,41.206c4.614,33.83-15.5,58.174-43.245,72.623
		c-10.808,5.626-23.144,7.413-35.044,10.34c-14.163,3.484-28.073,0.297-42.046,1.781c-5.369,0.567-11.149-2.613-16.723-4.165
		c-3.421-0.953-6.8-2.033-11.863-1.114c9.551,6.87,19.564,9.905,29.705,11.109c19.708,2.34,39.544,2.474,59.118-1.766
		c4.4-0.953,5.579,0.068,6.94,4.657c7.196,24.245,8.857,49.424,13.328,74.115c1.198,6.626,0.584,13.272-5.521,17.97
		c-4.194,3.227-8.223,3.389-12.422-0.087c-5.529-4.583-8.606-10.544-10.364-17.346c-5.2-20.137-10.517-40.242-15.573-60.411
		c-1.485-5.931-5.543-7.035-10.401-6.033c-5.273,1.089-4.411,5.274-3.588,9.173c4.142,19.626,8.294,39.255,12.334,58.904
		c0.921,4.468,1.76,9.005,2.016,13.545c0.383,6.956-4.537,14.316-10.566,16.15c-6.821,2.075-11.258-2.141-14.862-6.777
		c-6.92-8.905-8.22-20.114-11.144-30.54c-4.657-16.608-8.791-33.377-12.573-50.209c-1.302-5.812-4.778-5.521-8.968-5.315
		c-5.741,0.289-3.94,4.308-3.376,7.243c4.704,24.443,9.523,48.867,14.39,73.28c1.597,8.013,1.778,15.226-6.069,20.7
		c-4.755,3.317-8.873,3.479-13.149,0.04c-4.834-3.891-8.39-8.654-10.026-14.879c-5.747-21.85-11.891-43.593-17.43-65.494
		c-1.359-5.375-4.297-6.209-8.794-5.713c-5.493,0.604-3.78,4.779-3.277,7.594c2.765,15.457,4.636,31.043,8.285,46.384
		c2.374,9.983,2.492,20.56,3.003,30.898c0.283,5.707-3.478,10.129-8.117,12.674c-5.558,3.047-9.424-1.328-13.167-4.829
		c-6.926-6.479-8.626-15.506-10.917-23.944c-4.782-17.616-8.655-35.475-12.946-53.223c-0.695-2.878-0.673-6.191-4.316-7.452
		c-6.613-2.287-10.374,0.62-9.195,7.765c3.801,23.041,7.796,46.054,11.863,69.051c1.413,7.979,2.474,15.558-4.996,21.569
		c-4.235,3.403-7.972,3.736-12.334,0.48c-6.284-4.694-9.232-11.261-11.069-18.553c-5.266-20.906-10.479-41.827-15.879-62.699
		c-0.713-2.753-0.971-6.106-4.794-7.106c-6.551-1.709-9.673,0.906-8.394,7.833c4.195,22.705,8.639,45.368,12.912,68.058
		c1.232,6.535,2.222,13.006-2.715,18.813c-5.669,6.669-10.907,7.095-17.468,1.329c-8.102-7.125-8.98-17.424-11.708-26.752
		c-4.832-16.527-8.878-33.291-13.157-49.979c-2.305-9.003-4.906-11.585-11.273-9.556c-7.205,2.299-3.41,8.156-2.728,12.232
		c3.82,22.758,8.115,45.437,12.236,68.146c1.189,6.56,0.599,12.549-4.604,17.56c-4.652,4.481-9.297,4.552-14.39,1.052
		c-7.515-5.163-9.905-13.29-12.03-21.396c-5.263-20.111-10.452-40.244-15.236-60.47c-1.245-5.272-3.951-6.6-8.624-5.925
		c-5.712,0.826-4.024,5.114-3.457,8.298c4.025,22.477,8.285,44.909,12.391,67.372c0.5,2.731,0.866,5.569,0.692,8.322
		c-0.801,12.791-13.26,18.718-24.565,12.999c-21.398-10.83-28.396-30.686-33.771-51.555c-6.514-25.309-13.086-50.637-16.72-76.576
		c-1.639-11.674-1.412-23.536,2.29-34.668c5.344-16.085,17.912-24.71,33.964-28.445c18.485-4.301,37.026-8.364,55.558-12.463
		c7.466-1.65,13.238-6.117,18.901-10.867c2.662-2.237,2.436-4.244-0.32-6.039c-6.777-4.412-10.054-10.591-9.365-18.665
		c0.385-4.515-2.489-4.093-5.362-3.934c-11.417,0.63-22.833,1.246-34.249,1.874c-3.2,0.177-6.392,1.002-8.335,0.034
		c7.271-1.502,15.885-2.83,24.195-5.226c3.112-0.897,6.367-2.97,8.745-5.828c1.852-2.231,4.754-2.503,7.472-2.812
		c4.483-0.509,8.807-1.459,14.603-4.921c-21.802,1.616-41.56,3.081-60.56,4.49c19.751-5.586,41.414-4.68,61.82-11.557
		c-9.229-2.913-18.656-3.022-30.298-3.59c9.747-3.987,18.057-1.576,25.849-4.034c-22.805-2.458-45.914-1.475-68.622-5.864
		c26.354-1.673,52.709-3.349,79.064-5.021c0.01-0.957,0.016-1.916,0.025-2.871c-17.769,0-35.534,0-53.3,0
		c0.003-0.881,0.006-1.763,0.01-2.645c17.47-1.726,34.922-3.683,52.424-5.002c3.888-0.295,5.98-0.863,7.1-4.812
		c8.67-30.585,10.805-61.46,3.308-92.507c-6.021-24.953-13.691-49.358-26.777-71.778c-12.437-21.302-14.485-45.507-17.688-69.187
		c-2.855-21.107-5.102-42.336-3.832-63.769c0.527-8.928,1.855-17.744,3.906-26.33c5.061-21.169,19.115-35.803,45.693-20.443
		c21.619,12.5,38.895,29.948,55.636,48.083c11.184,12.111,19.798,26.426,32.394,37.358c3.072,2.665,3.348,4.213,4.686-1.288
		c2.269-9.318,0.972-18.628,1.794-27.896c0.447-5.037,0.081-10.144,0.081-15.218C440.811,179.184,441.149,179.094,441.49,179.004z
		 M494.557,520.607c11.46,0.556,22.274-1.898,31.416-8.633c16.016-11.801,16.71-24.881,0.757-37.827
		c-1.685-1.365-4.217-1.626-6.116-2.793c-15.425-9.47-31.524-8.279-47.105-1.533c-9.843,4.264-17.809,11.035-17.728,23.975
		c0.074,11.512,7.829,16.884,15.835,21.247C478.439,518.761,486.333,521.349,494.557,520.607z M426.887,341.772
		c-10.615-0.093-20.629,4.009-25.836,10.52c-6.119,7.655-4.152,15.444,5.179,18.457c11.869,3.829,22.305,0.081,31.543-7.546
		c4.158-3.436,8.229-7.472,5.744-13.52c-2.538-6.176-8.087-7.938-14.349-7.914C428.408,341.774,427.647,341.772,426.887,341.772z
		 M567.256,366.411c3.908,0.024,7.588-0.304,11.119-2.222c6.652-3.615,8.244-8.338,4.704-15.029
		c-6.004-11.339-28.462-17.362-39.167-10.5c-5.931,3.801-6.316,7.655-2.768,13.796C547.07,362.724,556.613,365.458,567.256,366.411z
		"/>
	<path fill-rule="evenodd" clip-rule="evenodd" fill="#F9F6F5" d="M767.155,648.61c0.946,8.575-0.787,16.754-6.501,24.487
		c-4.474,6.06-10.145,10.159-16.899,9.746c-7.589-0.465-12.419-6.693-14.656-13.858c-3.624-11.621-6.765-23.4-9.984-35.146
		c-3.352-12.227-6.589-24.486-9.807-36.747c-1.356-5.176-3.668-9.136-9.915-7.997c-6.628,1.21-5.702,6.176-4.819,10.74
		c4.258,21.924,8.618,43.829,12.987,65.73c0.993,4.979,1.934,9.899,1.881,15.06c-0.066,6.091-3.655,9.021-8.426,11.369
		c-4.918,2.418-8.819,0.345-12.514-2.733c-4.981-4.149-6.79-9.965-8.268-15.919c-6.233-25.113-12.396-50.245-18.652-75.356
		c-2.259-9.066-1.03-17.663,3.282-25.817c9.937-18.777,13.536-38.572,10.312-59.651c-0.995-6.498,3.644-14.498,10.638-16.952
		c19.113-6.7,43.661-4.407,52.862,20.486c11.926,32.26,19.939,65.503,24.93,99.477C765.186,626.303,767.77,637.002,767.155,648.61z"
		/>
	<path fill-rule="evenodd" clip-rule="evenodd" fill="#F9F6F5" d="M337.127,846.281c6.119-4.933,10.581-9.061,15.568-12.406
		c5.617-3.764,9.489-1.438,10.432,5.238c0.59,4.161-2.262,10.147,1.4,12.072c4.111,2.156,6.814-3.846,10.181-6.217
		c1.753-1.234,3.516-2.571,4.68,0.6c2.241,6.089,3.659,2.038,5.468-0.348c6.601-8.698,14.783-15.336,25.374-18.547
		c3.627-1.1,7.581-2.371,9.766,2.547c1.102,2.479,2.333,2.043,3.87,0.32c1.763-1.977,4.059-2.375,6.125-0.751
		c2.601,2.042,1.291,4.686,0.245,6.954c-2.231,4.85-6.247,9.16-4.369,16.34c4.304-3.862,7.981-7.195,11.695-10.482
		c0.885-0.777,1.694-2.227,3.156-1.33c1.642,1.009,1.046,2.477,0.627,4.031c-1.691,6.262-11.835,15.587-17.893,15.909
		c-3.491,0.184-5.729-1.846-6.262-5.337c-0.375-2.452-0.438-4.95-0.713-8.319c-5.456,4.542-10.66,8.27-15.082,12.766
		c-3.035,3.084-6.6,4.677-10.383,5.81c-6.376,1.904-9.588-1.105-9.917-7.545c-0.311-6.105-3.017-7.024-7.684-3.493
		c-2.42,1.831-4.741,3.792-7.162,5.622c-1.893,1.432-3.23,4.383-6.374,2.753c-2.979-1.542-5.669-3.283-5.819-7.282
		c-0.158-4.249-0.707-8.482-1.167-13.593c-6.83,4.016-10.386,10.588-15.459,15.569c-1.539,1.514-2.268,4.539-5.123,3.782
		c-2.889-0.767-3.457-3.823-3.652-6.153c-0.4-4.782-0.031-9.624-0.093-14.438c-0.016-1.183-0.065-2.867-0.795-3.436
		c-1.452-1.133-2.845,0.22-3.947,1.208c-7.537,6.758-13.898,14.593-20.406,22.305c-1.545,1.834-2.479,6.36-6.036,3.308
		c-2.281-1.959-3.677-5.148-1.856-8.813c2.52-5.066,7.603-8.599,7.892-15.567c-5.136,3.934-10.417,7.698-15.37,11.854
		c-5.437,4.564-10.411,9.771-17.104,12.524c-6.166,2.538-8.822,0.744-10.035-5.801c-1.279-6.895,3.36-12.409,4.416-19.323
		c-8.242,1.407-12.943,7.212-18.305,11.973c-4.543,4.033-8.878,8.325-13.614,12.114c-6.485,5.195-13.712,2.274-15.115-5.992
		c-0.505-2.982-0.422-6.063-0.624-9.099c-0.14-2.149,1.325-5.254-1.272-6.066c-1.682-0.524-4.456,0.854-6.132,2.163
		c-7.538,5.896-14.784,12.167-22.308,18.086c-2.073,1.632-3.907,5.621-7.522,2.351c-2.948-2.661-2.225-6.279-0.949-9.188
		c1.179-2.685,3.627-4.822,5.569-7.156c0.984-1.179,1.968-2.305,1.36-4.685c-5.756,0.551-8.243,6.028-12.555,8.53
		c-2.167,1.253-4.043,2.997-6.066,4.496c-3.653,2.699-7.544,4.533-11.889,1.719c-4.285-2.774-5.616-7.077-5.083-11.928
		c0.462-4.208,1.26-8.382,0.329-13.347c-3.556,5.191-7.106,10.386-10.668,15.568c-3.873,5.638-7.339,11.643-12.654,16.086
		c-4.053,3.386-8.127,6.809-14.256,3.93c-6.207-2.915-9.248-7.361-9.269-14.209c-0.034-10.334,2.777-20.013,7.32-29.043
		c9.71-19.295,23.1-35.47,42.006-46.554c1.751-1.025,3.544-2.01,5.406-2.802c8.292-3.521,12.925-0.316,12.487,8.593
		c-0.165,3.311-0.481,6.659-2.125,9.585c-1.648,2.924-2.917,5.118,1.704,6.682c2.647,0.897,1.669,3.594,1.231,5.958
		c-2.364,12.688-8.859,24.076-11.379,36.693c-0.466,2.325-2.482,5.268,0.295,6.831c2.243,1.267,4.887-0.419,6.948-2.008
		c6.017-4.636,11.932-9.341,18.371-13.468c7.342-4.707,11.081-3.588,12.434,5.16c0.143,0.925,0.115,1.877,0.224,3.827
		c5.57-3.584,10.212-6.917,15.183-9.646c3.233-1.777,6.936-3.9,10.662-0.921c3.55,2.84,4.18,6.756,3.497,11.037
		c-0.239,1.502-0.223,3.049-0.496,4.543c-0.484,2.636-2.501,5.732,0.8,7.535c3.29,1.797,4.894-1.875,6.814-3.447
		c9.213-7.553,18.244-15.326,28.264-21.831c2.641-1.713,4.986-4.884,8.707-2.115c3.358,2.501,3.057,5.793,2.561,9.541
		c-0.711,5.358-5.974,9.688-3.188,16.633c7.066-5.104,13.893-10.001,20.676-14.947c3.075-2.244,5.945-4.788,9.129-6.852
		c7.233-4.692,9.049-3.953,11.746,4.959c4.483-3.063,8.602-6.372,13.163-8.863c6.604-3.606,9.756-1.683,10.349,5.909
		C337.334,838.164,337.127,841.413,337.127,846.281z M113.895,852.904c0.512,2.722-0.956,6.125,2.271,7.603
		c2.87,1.312,4.559-1.498,6.464-2.984c1.989-1.552,3.985-3.2,5.58-5.134c13.715-16.602,26.041-34.195,37.277-52.562
		c0.537-0.876,1.536-2.021,0.686-2.563c-5.862-3.746-1.903-6.631,0.651-9.711c1.216-1.464,1.93-3.381,0.869-4.924
		c-1.489-2.154-3.897-1.146-5.458-0.097c-4.388,2.939-8.508,6.277-12.788,9.382c-9.974,7.227-16.248,17.47-22.433,27.72
		C120.771,829.985,114.519,840.411,113.895,852.904z M416.197,837.335c-12.729-1.532-19.826,5.896-25.954,14.874
		c-0.95,1.39-2.073,3.109-0.497,4.782c1.021,1.082,2.368,0.626,3.46-0.017C401.972,851.827,411.024,846.99,416.197,837.335z"/>
	<path fill-rule="evenodd" clip-rule="evenodd" fill="#F9F6F5" d="M618.297,800.847c8.726,0.345,15.137-3.033,19.546-10.541
		c1.359-2.321,3.165-5.512,6.112-5.007c3.334,0.572,3.153,4.007,2.908,6.877c-0.331,3.914,2.492,3.215,4.6,2.796
		c3.46-0.682,6.817-1.852,10.252-2.668c1.809-0.429,3.581-0.273,4.456,1.821c0.813,1.952-1.3,2.401-1.781,3.537
		c-3.181,7.476-10.212,4.755-15.53,5.751c-4.772,0.894-7.33,3.242-10.163,6.852c-6.787,8.642-13.449,17.011-13.849,28.79
		c-0.143,4.158-0.469,7.972,1.865,11.683c1.039,1.655,1.675,3.716,1.933,5.663c0.344,2.608-0.235,5.559-2.949,6.394
		c-3.052,0.937-4.417-1.938-5.43-4.211c-3.661-8.255-2.24-16.851-1.274-25.381c-3.136-0.785-4.333,1.784-5.386,3.429
		c-6.04,9.456-16.306,12.345-25.699,15.892c-7.003,2.644-13.023,6.592-19.242,10.317c-9.465,5.673-19.348,9.931-30.271,11.816
		c-3.546,0.611-7.298,0.866-8.393-2.833c-0.987-3.342,2.969-4.18,5.396-5.284c10.15-4.618,20.357-9.113,30.532-13.682
		c1.598-0.716,3.594-1.195,4.616-2.433c4.016-4.862,12.55-7.782,10.728-15.227c-1.759-7.188-10.158-7.438-16.278-9.353
		c-7.715-2.411-15.782-3.752-23.372-6.465c-9.787-3.494-11.191-8.884-5.108-17.445c8.935-12.577,22.163-18.798,35.996-24.302
		c10.39-4.129,21.033-4.806,31.764-3.127C618.33,776.707,623.962,787.594,618.297,800.847z M615.221,802.308
		c-0.344-3.093-3.935-3.938-2.689-6.075c5.408-9.275-2.399-9.688-7.528-10.694c-20.778-4.076-38.484,4.034-55.207,15.093
		c-3.97,2.624-9.661,6.472-8.52,10.607c1.31,4.741,8.144,4.918,13.17,5.232c11.42,0.71,22.501,2.991,33.197,6.976
		c5.794,2.159,8.323,6.392,6.582,12.632c-0.593,2.123-1.316,4.208-2.468,7.85c16.481-8.148,26.536-20.351,34.424-35.109
		c-11.972,2.259-23.465,5.325-34.91,8.558c-1.796,0.509-3.38,2.881-5.226,0.366c-1.558-2.122-1.13-4.319,0.391-6.333
		c1.998-2.646,5.024-3.215,8.001-3.941C601.323,805.796,608.192,804.058,615.221,802.308z"/>
	<path fill-rule="evenodd" clip-rule="evenodd" fill="#F9F6F5" d="M823.164,840.99c-8.581,4.106-13.54,10.865-20.282,15.212
		c-4.143,2.669-8.766,7.476-13.585,4.162c-5.244-3.601-3.7-9.956-1.899-15.423c1.006-3.062,2.175-6.07,3.575-9.936
		c-4.979,0.437-7.897,2.783-10.747,5.606c-4.13,4.097-8.188,8.363-12.828,11.82c-9.517,7.087-16.563,4.024-18.652-7.643
		c-0.215-1.201-0.748-2.346-1.44-4.447c-5.495,6.113-10.317,11.876-15.586,17.196c-3.653,3.691-7.522,8.369-13.716,5.035
		c-4.72-2.542-5.878-9.946-2.979-16.5c4.074-9.22,9.347-17.558,18.562-22.424c4.537-2.392,9.011-5.423,14.669-1.271
		c3.178,2.33,4.812-1.325,5.734-3.892c4.602-12.788,12.034-23.969,19.9-34.863c2.039-2.827,3.94-7.729,8.687-5.468
		c5.144,2.454,2.52,7.003,1.256,10.696c-4.975,14.52-13.979,26.789-22.229,39.483c-2.566,3.948-3.604,8.416-3.708,13.027
		c-0.056,2.659-1.132,6.347,1.497,7.705c2.736,1.418,4.998-1.604,6.947-3.463c7.149-6.813,14.332-13.549,22.891-18.646
		c2.803-1.67,5.148-4.456,8.851-2.191c3.929,2.403,2.666,5.915,2.377,9.496c-0.319,3.99-3.385,6.835-3.733,10.668
		c-0.151,1.701-1.383,3.771,0.196,5.055c1.771,1.443,3.305-0.483,4.636-1.418c9.939-6.972,19.742-14.144,29.725-21.054
		c5.055-3.501,10.951-5.923,16.949-5.809c8.438,0.165,14.277,12.063,11.233,21.706c-3.692,11.698-12.999,17.179-23.878,20.127
		c-6.266,1.693-14.323-6.91-13.754-13.865C822.037,847.2,822.575,844.758,823.164,840.99z M768.98,807.108
		c4.729-4.104,8.028-9.021,8.882-15.332c-3.411,4.214-6.263,8.757-9,13.364c-0.288,0.484,0.106,1.369,0.184,2.063
		c-0.289,0.105-0.574,0.215-0.86,0.32c0.149,0.05,0.373,0.187,0.426,0.137C768.773,807.519,768.862,807.298,768.98,807.108z
		 M849.785,831.22c-10.87,2.104-18.929,10.843-19.015,20.512c-0.02,2.256-0.373,4.76,2.149,6.06
		c2.307,1.188,4.407,0.262,6.464-0.925c8.915-5.11,11.662-11.425,9.712-22.02C848.892,833.739,849.525,832.479,849.785,831.22z
		 M747.762,830.158c-11.685,0.961-23.345,10.507-25.971,20.348c-0.396,1.489-0.787,3.08,0.518,4.241
		c1.828,1.626,3.355,0.071,4.665-0.925C735.25,847.529,742.201,840.061,747.762,830.158z"/>
	<path fill-rule="evenodd" clip-rule="evenodd" fill="#F9F6F5" d="M663.797,686.5c-0.108,3.013,0.342,6.091-1.656,8.8
		c-2.921,3.953-6.062,8.326-11.317,7.997c-6.604-0.412-10.951-5.18-13.754-10.806c-4.777-9.606-6.689-20.203-9.588-30.441
		c-3.245-11.475-5.822-23.14-9.045-34.621c-2.129-7.59-0.565-14.106,4.58-19.772c4.136-4.547,9.771-7.678,15.577-6.034
		c6.001,1.698,10.938,5.969,12.224,13.078c3.067,16.952,6.442,33.849,9.467,50.806C661.529,672.486,664.059,679.263,663.797,686.5z"
		/>
	<path fill-rule="evenodd" clip-rule="evenodd" fill="#F9F6F5" d="M718.697,185.35c-1.365-24.933,20.972-52.526,52.763-51.62
		c29.417,0.838,51.412,23.037,51.177,52.905c-0.235,29.809-22.923,51.248-53.082,51.691
		C739.333,238.773,716.185,209.921,718.697,185.35z M770.464,234.361c26.062-0.22,48.271-20.642,48.526-48.294
		c0.245-26.541-22.025-48.691-48.438-48.526c-26.115,0.165-48.178,21.963-48.547,47.974
		C721.636,211.534,744.292,234.373,770.464,234.361z"/>
	<path fill-rule="evenodd" clip-rule="evenodd" fill="#F9F6F5" d="M482.296,836.233c1.461,6.083-0.354,9.704-3.633,12.786
		c-3.864,3.634-8.099,6.913-11.652,10.819c-4.301,4.724-9.707,4.86-14.417,2.669c-4.493-2.088-5.654-7.311-5.601-12.335
		c0.17-16.642,7.873-30.516,16.431-43.986c5-7.866,10.582-15.363,15.82-23.083c2.737-4.034,6.514-5.695,10.976-4.054
		c4.615,1.697,4.14,5.099,2.75,9.356c-6.027,18.426-18.02,33.225-28.949,48.669c-1.599,2.256-2.625,5.118-6.544,5.648
		c-2.986,0.405-4.18,10.081-1.729,12.934c2.945,3.435,5.635,0.005,7.68-1.315C470.445,849.811,475.162,842.674,482.296,836.233z
		 M486.228,789.986c-9.893,11.822-20.248,23.458-24.859,38.748C471.172,816.836,481.791,805.489,486.228,789.986z"/>
	<path fill-rule="evenodd" clip-rule="evenodd" fill="#F9F6F5" d="M694.034,851.555c6.674-2.623,9.982-7.283,14.141-10.864
		c1.291-1.114,2.629-2.873,4.515-1.194c2.058,1.837,1.087,3.851-0.562,5.225c-6.196,5.165-12.539,10.154-18.795,15.245
		c-1.717,1.394-3.39,1.239-4.698-0.29c-2.234-2.61-5.555-4.702-4.812-8.95c0.549-3.152,2.315-6.165,1.129-9.945
		c-8.134,5.113-14.022,12.531-21.386,18.172c-2.781,2.128-5.255,6.998-9.181,2.589c-3.332-3.744-7.821-7.653-5.401-13.9
		c0.868-2.25,3.034-3.999,2.743-6.724c-0.575-0.131-1.036-0.363-1.465-0.311c-2.514,0.311-4.894,4.987-7.094,1.7
		c-2.374-3.547,1.412-5.676,4.214-7.524c3.386-2.231,6.55-4.816,10.026-6.887c2.718-1.612,5.616-2.28,8.127,0.882
		c2.06,2.594,2.846,4.643,0.968,8.103c-2.65,4.89-7.659,8.871-7.137,16.399c7.925-4.942,14.106-10.752,20.227-16.648
		c2.917-2.808,5.799-5.659,8.852-8.312c3.045-2.646,5.779-1.81,8.765,0.667c2.845,2.362,3.63,4.68,1.854,7.875
		C696.729,841.071,695.378,845.6,694.034,851.555z"/>
	<path fill-rule="evenodd" clip-rule="evenodd" fill="#F9F6F5" d="M282.676,811.024c-3.382-0.831-4.788-2.95-5.098-6.001
		c-0.332-3.293,1.862-4.906,4.435-4.923c2.839-0.021,4.267,2.62,4.5,5.187C286.76,808.045,284.963,809.879,282.676,811.024z"/>
	<path fill-rule="evenodd" clip-rule="evenodd" fill="#F9F6F5" d="M807.155,806.997c-3.209-0.723-4.313-3.097-4.363-6.107
		c-0.056-3.23,2.163-4.718,4.869-4.403c2.799,0.322,4.063,2.805,4.059,5.53C811.71,804.855,810.385,806.81,807.155,806.997z"/>
	<path fill-rule="evenodd" clip-rule="evenodd" fill="#AA2483" d="M494.557,520.607c-8.223,0.741-16.118-1.847-22.941-5.564
		c-8.006-4.362-15.761-9.734-15.835-21.247c-0.081-12.94,7.885-19.711,17.728-23.975c15.581-6.746,31.68-7.938,47.105,1.533
		c1.899,1.167,4.432,1.428,6.116,2.793c15.953,12.946,15.259,26.026-0.757,37.827C516.831,518.709,506.017,521.163,494.557,520.607z
		"/>
	<path fill-rule="evenodd" clip-rule="evenodd" fill="#AA2483" d="M426.887,341.772c0.76,0,1.521,0.002,2.281-0.003
		c6.262-0.025,11.811,1.738,14.349,7.914c2.486,6.048-1.585,10.084-5.744,13.52c-9.238,7.627-19.674,11.375-31.543,7.546
		c-9.331-3.013-11.298-10.802-5.179-18.457C406.257,345.781,416.271,341.679,426.887,341.772z"/>
	<path fill-rule="evenodd" clip-rule="evenodd" fill="#AA2483" d="M567.256,366.411c-10.643-0.953-20.186-3.687-26.111-13.955
		c-3.549-6.141-3.163-9.996,2.768-13.796c10.705-6.861,33.163-0.838,39.167,10.5c3.54,6.69,1.948,11.414-4.704,15.029
		C574.844,366.106,571.164,366.435,567.256,366.411z"/>
	<path fill-rule="evenodd" clip-rule="evenodd" fill="#AA2483" d="M113.895,852.904c0.624-12.493,6.877-22.919,13.12-33.271
		c6.185-10.25,12.459-20.493,22.433-27.72c4.279-3.104,8.4-6.442,12.788-9.382c1.561-1.049,3.969-2.058,5.458,0.097
		c1.062,1.543,0.348,3.46-0.869,4.924c-2.554,3.08-6.514,5.965-0.651,9.711c0.85,0.542-0.149,1.688-0.686,2.563
		c-11.237,18.367-23.562,35.961-37.277,52.562c-1.595,1.934-3.591,3.582-5.58,5.134c-1.905,1.486-3.594,4.297-6.464,2.984
		C112.939,859.029,114.407,855.626,113.895,852.904z"/>
	<path fill-rule="evenodd" clip-rule="evenodd" fill="#AA2483" d="M416.197,837.335c-5.173,9.655-14.225,14.492-22.991,19.64
		c-1.093,0.643-2.439,1.099-3.46,0.017c-1.576-1.673-0.453-3.393,0.497-4.782C396.371,843.231,403.468,835.803,416.197,837.335z"/>
	<path fill-rule="evenodd" clip-rule="evenodd" fill="#AA2483" d="M615.221,802.308c-7.028,1.75-13.897,3.488-20.783,5.16
		c-2.977,0.727-6.003,1.295-8.001,3.941c-1.521,2.014-1.948,4.211-0.391,6.333c1.846,2.515,3.43,0.143,5.226-0.366
		c11.445-3.232,22.938-6.299,34.91-8.558c-7.888,14.759-17.942,26.961-34.424,35.109c1.151-3.642,1.875-5.727,2.468-7.85
		c1.741-6.24-0.788-10.473-6.582-12.632c-10.696-3.984-21.777-6.266-33.197-6.976c-5.026-0.314-11.86-0.491-13.17-5.232
		c-1.142-4.136,4.55-7.983,8.52-10.607c16.723-11.059,34.429-19.169,55.207-15.093c5.129,1.006,12.937,1.419,7.528,10.694
		C611.286,798.37,614.877,799.215,615.221,802.308z"/>
	<path fill-rule="evenodd" clip-rule="evenodd" fill="#AA2483" d="M849.785,831.22c-0.26,1.26-0.894,2.52-0.689,3.627
		c1.95,10.595-0.797,16.909-9.712,22.02c-2.057,1.187-4.157,2.113-6.464,0.925c-2.522-1.3-2.169-3.804-2.149-6.06
		C830.856,842.062,838.915,833.323,849.785,831.22z"/>
	<path fill-rule="evenodd" clip-rule="evenodd" fill="#AA2483" d="M747.762,830.158c-5.561,9.902-12.512,17.371-20.788,23.664
		c-1.31,0.996-2.837,2.551-4.665,0.925c-1.305-1.161-0.914-2.752-0.518-4.241C724.417,840.665,736.077,831.119,747.762,830.158z"/>
	<path fill-rule="evenodd" clip-rule="evenodd" fill="#AA2483" d="M769.048,807.207c-0.079-0.697-0.474-1.582-0.186-2.066
		c2.737-4.607,5.589-9.15,9-13.364c-0.854,6.311-4.152,11.228-8.882,15.332L769.048,807.207z"/>
	<path fill-rule="evenodd" clip-rule="evenodd" fill="#AA2483" d="M768.98,807.108c-0.118,0.189-0.207,0.41-0.369,0.553
		c-0.053,0.05-0.276-0.087-0.426-0.137c0.286-0.105,0.571-0.215,0.86-0.317C769.048,807.207,768.98,807.108,768.98,807.108z"/>
	<path fill-rule="evenodd" clip-rule="evenodd" fill="#AA2483" d="M770.464,234.361c-26.172,0.012-48.828-22.827-48.458-48.846
		c0.369-26.011,22.432-47.81,48.547-47.974c26.412-0.165,48.683,21.986,48.438,48.526
		C818.735,213.719,796.526,234.141,770.464,234.361z M775.944,157.347c-8.714-0.552-17.183,0.509-25.427,3.463
		c-2.154,0.773-2.982,2.095-2.099,3.969c0.776,1.645,2.489,1.75,3.836,0.528c9.34-8.506,20.62-4.59,31.181-4.667
		c2.742-0.019,5.638,1.964,8.2,3.47c1.602,0.943,2.706,2.919-0.223,3.788c-4.58,1.356-8.546,4.562-13.551,4.568
		c-3.69,0.006-8.761,2.04-7.638-5.284c0.273-1.794-1.285-3.407-3.32-3.414c-2.081-0.009-1.821,1.875-2.199,3.327
		c-1.577,6.023-3.803,11.534-10.722,13.418c-1.315,0.359-3.485,2.2-2.554,3.19c5.353,5.709-0.205,9.635-1.865,14.206
		c-1.104,3.051-1.723,6.641,2.136,7.622c4.085,1.039,2.785-3.296,3.515-5.282c3.113-8.474,3.342-8.605,9.942-2.274
		c6.142,5.89,12.224,11.845,18.337,17.765c1.791,1.735,3.987,3.004,5.967,0.863c2.533-2.731-0.688-4.096-2.159-5.334
		c-7.181-6.032-14.548-11.848-21.84-17.747c-5.98-4.841-4.941-11.304,2.352-14.134c1.623-0.63,3.463-0.689,5.183-1.102
		c6.832-1.642,13.905-2.336,20.322-5.583c3.6-1.818,5.651-4.428,4.657-8.434c-0.794-3.199-2.618-4.937-6.484-5.939
		C786.196,156.957,781.086,157.832,775.944,157.347z"/>
	<path fill-rule="evenodd" clip-rule="evenodd" fill="#AA2483" d="M486.228,789.986c-4.438,15.503-15.056,26.85-24.859,38.748
		C465.98,813.444,476.335,801.809,486.228,789.986z"/>
	<path fill-rule="evenodd" clip-rule="evenodd" fill="#F9F6F5" d="M775.944,157.347c5.142,0.484,10.252-0.391,15.547,0.981
		c3.866,1.002,5.69,2.74,6.484,5.939c0.994,4.006-1.058,6.616-4.657,8.434c-6.417,3.246-13.49,3.941-20.322,5.583
		c-1.72,0.413-3.56,0.472-5.183,1.102c-7.293,2.83-8.332,9.293-2.352,14.134c7.292,5.899,14.659,11.715,21.84,17.747
		c1.471,1.238,4.692,2.604,2.159,5.334c-1.979,2.142-4.176,0.872-5.967-0.863c-6.113-5.92-12.195-11.875-18.337-17.765
		c-6.601-6.331-6.829-6.2-9.942,2.274c-0.729,1.986,0.57,6.321-3.515,5.282c-3.858-0.981-3.24-4.571-2.136-7.622
		c1.66-4.57,7.218-8.496,1.865-14.206c-0.932-0.99,1.238-2.831,2.554-3.19c6.919-1.884,9.145-7.395,10.722-13.418
		c0.378-1.452,0.118-3.336,2.199-3.327c2.035,0.007,3.594,1.62,3.32,3.414c-1.123,7.324,3.947,5.291,7.638,5.284
		c5.005-0.006,8.971-3.211,13.551-4.568c2.929-0.869,1.824-2.845,0.223-3.788c-2.562-1.505-5.458-3.488-8.2-3.47
		c-10.561,0.077-21.841-3.839-31.181,4.667c-1.347,1.222-3.06,1.117-3.836-0.528c-0.884-1.875-0.056-3.196,2.099-3.969
		C758.762,157.856,767.23,156.795,775.944,157.347z"/>
</g>
</svg>
