<?xml version="1.0" encoding="utf-8"?>
<!-- Generator: Adobe Illustrator 16.0.0, SVG Export Plug-In . SVG Version: 6.00 Build 0)  -->
<!DOCTYPE svg PUBLIC "-//W3C//DTD SVG 1.1//EN" "http://www.w3.org/Graphics/SVG/1.1/DTD/svg11.dtd">
<svg version="1.1" id="Layer_1" xmlns="http://www.w3.org/2000/svg" xmlns:xlink="http://www.w3.org/1999/xlink" x="0px" y="0px"
	 width="1000px" height="1000px" viewBox="0 0 1000 1000" enable-background="new 0 0 1000 1000" xml:space="preserve">
<g>
	<path fill="#F9F6F5" d="M422.774,91.698c2.333,10.555,4.667,21.113,7,31.664c0.836-0.051,1.673-0.106,2.51-0.157
		c0-17.612,0-35.223,0-52.84c1.114-0.14,2.23-0.281,3.347-0.422c4.337,21.33,8.679,42.66,13.019,63.992
		c0.864-0.117,1.729-0.234,2.593-0.35c0-11.931,0-23.869,0-35.804c0.846-0.125,1.697-0.25,2.544-0.372
		c2.617,13.355,5.238,26.713,7.854,40.072c2.668-32.281-2.068-64.196,0.136-96.299c4.89,24.048,5.345,48.851,12.289,75.002
		c4.184-16.088-3.108-31.389,6.875-45.942c4.652,17.802,5.851,35.381,15.8,50.431c0.459-6.879,0.914-13.675,1.569-23.496
		c5.549,12.777,2.944,24.69,9.64,34.205c3.32-31.603-3.903-62.974-0.679-95.287c6.479,31.155,5.707,62.667,14.693,92.93
		c0-12.885,0-25.768,0-38.653c0.93-0.093,1.863-0.186,2.799-0.274c2.961,16.077,5.921,32.155,8.887,48.229
		c0.713-0.023,1.422-0.046,2.139-0.075c0.521-7.157,1.045-14.317,1.567-21.474c0.81-0.08,1.615-0.154,2.425-0.233
		c2.19,12.569,4.174,25.18,6.68,37.683c0.834,4.146-0.764,11.034,4.213,11.643c4.547,0.553,10.072-1.569,14.34-5.614
		c12.316-11.676,21.941-25.208,29.896-40.082c16.896-31.603,35.625-62.01,59.396-88.993c7.568-8.589,15.6-16.66,24.989-23.58
		c20.025-14.768,37.438-7.052,49.214,14.781c13.702,25.397,20.829,53.114,26.059,81.129c7.771,41.624,10.74,83.594,5.843,126.008
		c-3.264,28.25-16.381,52.853-26.309,78.654c-16.746,43.54-27.717,88.4-32.781,134.774c-4.136,37.809,5.979,72.157,23.495,105.169
		c10.212,19.256,16.382,40.035,19.341,61.723c6.912,50.674-23.217,87.139-64.776,108.781c-16.188,8.428-34.667,11.104-52.492,15.488
		c-21.215,5.22-42.051,0.445-62.98,2.668c-8.043,0.851-16.701-3.914-25.049-6.238c-5.126-1.428-10.188-3.046-17.771-1.669
		c14.306,10.29,29.304,14.837,44.495,16.641c29.521,3.505,59.233,3.705,88.552-2.646c6.592-1.426,8.357,0.103,10.396,6.977
		c10.779,36.315,13.268,74.032,19.964,111.018c1.795,9.924,0.875,19.88-8.271,26.916c-6.281,4.836-12.316,5.078-18.606-0.129
		c-8.281-6.866-12.891-15.796-15.523-25.982c-7.79-30.163-15.755-60.278-23.327-90.491c-2.225-8.882-8.303-10.538-15.58-9.037
		c-7.898,1.633-6.607,7.902-5.375,13.741c6.204,29.396,12.424,58.799,18.476,88.233c1.379,6.69,2.636,13.486,3.019,20.288
		c0.575,10.419-6.794,21.445-15.825,24.192c-10.218,3.106-16.863-3.21-22.263-10.152c-10.365-13.341-12.312-30.131-16.692-45.747
		c-6.976-24.876-13.168-49.995-18.833-75.208c-1.95-8.704-7.157-8.268-13.433-7.961c-8.6,0.434-5.902,6.454-5.057,10.849
		c7.046,36.613,14.264,73.198,21.554,109.768c2.392,12.001,2.664,22.808-9.091,31.006c-7.123,4.971-13.289,5.21-19.695,0.062
		c-7.24-5.831-12.566-12.964-15.019-22.287c-8.608-32.731-17.811-65.3-26.108-98.104c-2.036-8.051-6.436-9.3-13.172-8.557
		c-8.229,0.903-5.663,7.155-4.909,11.374c4.143,23.153,6.944,46.5,12.41,69.478c3.556,14.955,3.733,30.797,4.498,46.282
		c0.424,8.549-5.209,15.172-12.159,18.984c-8.325,4.563-14.116-1.989-19.723-7.232c-10.374-9.704-12.921-23.226-16.353-35.867
		c-7.162-26.386-12.963-53.138-19.391-79.723c-1.042-4.31-1.009-9.273-6.465-11.161c-9.906-3.426-15.539,0.928-13.773,11.63
		c5.693,34.513,11.677,68.985,17.77,103.434c2.116,11.951,3.705,23.303-7.484,32.308c-6.343,5.097-11.941,5.597-18.475,0.72
		c-9.413-7.033-13.828-16.869-16.579-27.79c-7.889-31.315-15.697-62.655-23.787-93.918c-1.068-4.125-1.454-9.148-7.181-10.646
		c-9.812-2.561-14.489,1.357-12.572,11.734c6.282,34.01,12.939,67.955,19.341,101.945c1.845,9.785,3.328,19.481-4.066,28.179
		c-8.492,9.988-16.338,10.626-26.167,1.989c-12.135-10.672-13.451-26.099-17.538-40.071c-7.238-24.757-13.298-49.867-19.707-74.863
		c-3.454-13.487-7.349-17.354-16.887-14.314c-10.792,3.443-5.108,12.217-4.087,18.322c5.722,34.089,12.156,68.062,18.329,102.077
		c1.782,9.827,0.898,18.797-6.896,26.304c-6.969,6.712-13.926,6.816-21.556,1.574c-11.256-7.732-14.836-19.905-18.019-32.05
		c-7.885-30.122-15.657-60.282-22.823-90.576c-1.865-7.896-5.918-9.886-12.918-8.876c-8.556,1.237-6.027,7.662-5.178,12.431
		c6.029,33.668,12.41,67.268,18.561,100.915c0.749,4.093,1.297,8.344,1.037,12.466c-1.2,19.16-19.863,28.039-36.796,19.473
		c-32.052-16.223-42.535-45.967-50.586-77.227c-9.757-37.91-19.601-75.849-25.045-114.701c-2.455-17.488-2.115-35.256,3.43-51.929
		c8.005-24.095,26.831-37.014,50.875-42.609c27.689-6.441,55.462-12.528,83.221-18.668c11.183-2.472,19.83-9.163,28.312-16.278
		c3.988-3.351,3.648-6.356-0.479-9.045c-10.152-6.609-15.06-15.864-14.028-27.959c0.578-6.763-3.727-6.131-8.031-5.892
		c-17.102,0.943-34.202,1.866-51.302,2.807c-4.793,0.265-9.575,1.501-12.485,0.051c10.891-2.251,23.794-4.238,36.242-7.828
		c4.661-1.343,9.537-4.448,13.099-8.73c2.775-3.341,7.121-3.749,11.192-4.211c6.715-0.763,13.193-2.186,21.875-7.371
		c-32.657,2.419-62.253,4.613-90.713,6.725c29.585-8.367,62.034-7.01,92.6-17.312c-13.823-4.363-27.945-4.527-45.383-5.377
		c14.601-5.973,27.047-2.36,38.719-6.043c-34.159-3.682-68.774-2.208-102.788-8.783c39.476-2.506,78.954-5.017,118.43-7.521
		c0.014-1.434,0.023-2.87,0.038-4.301c-26.617,0-53.227,0-79.838,0c0.004-1.319,0.009-2.642,0.015-3.963
		c26.168-2.585,52.31-5.516,78.526-7.492c5.823-0.442,8.957-1.292,10.635-7.207c12.986-45.813,16.186-92.062,4.956-138.567
		c-9.02-37.377-20.508-73.933-40.109-107.516c-18.629-31.909-21.698-68.165-26.494-103.636c-4.277-31.616-7.644-63.415-5.741-95.52
		c0.79-13.374,2.779-26.579,5.851-39.44c7.582-31.709,28.633-53.629,68.444-30.622c32.383,18.724,58.26,44.859,83.337,72.024
		c16.753,18.141,29.655,39.583,48.523,55.958c4.601,3.992,5.015,6.311,7.019-1.93c3.4-13.957,1.456-27.903,2.688-41.785
		c0.67-7.545,0.121-15.195,0.121-22.795C421.756,91.968,422.264,91.832,422.774,91.698z M502.263,603.386
		c17.166,0.833,33.364-2.844,47.058-12.933c23.992-17.676,25.03-37.269,1.136-56.659c-2.524-2.045-6.317-2.436-9.161-4.186
		c-23.105-14.185-47.221-12.4-70.56-2.295c-14.743,6.387-26.675,16.529-26.554,35.911c0.111,17.244,11.727,25.291,23.719,31.826
		C478.121,600.62,489.944,604.496,502.263,603.386z M400.9,335.508c-15.901-0.139-30.9,6.005-38.7,15.758
		c-9.166,11.467-6.218,23.133,7.759,27.647c17.777,5.735,33.41,0.121,47.248-11.303c6.227-5.147,12.326-11.192,8.603-20.251
		c-3.802-9.251-12.113-11.891-21.493-11.854C403.179,335.511,402.038,335.508,400.9,335.508z M611.159,372.415
		c5.854,0.036,11.365-0.456,16.655-3.329c9.964-5.415,12.349-12.489,7.046-22.511c-8.993-16.985-42.633-26.007-58.668-15.729
		c-8.886,5.693-9.462,11.466-4.147,20.665C580.923,366.893,595.218,370.987,611.159,372.415z"/>
	<path fill="#F9F6F5" d="M910.589,795.123c1.416,12.843-1.179,25.096-9.739,36.678c-6.702,9.078-15.195,15.216-25.312,14.599
		c-11.369-0.696-18.604-10.026-21.954-20.757c-5.43-17.407-10.134-35.052-14.955-52.646c-5.021-18.314-9.869-36.679-14.69-55.044
		c-2.03-7.753-5.494-13.685-14.852-11.979c-9.928,1.812-8.54,9.252-7.218,16.088c6.378,32.84,12.909,65.65,19.454,98.455
		c1.486,7.46,2.896,14.83,2.817,22.56c-0.1,9.125-5.476,13.513-12.623,17.029c-7.366,3.622-13.209,0.518-18.744-4.093
		c-7.46-6.214-10.171-14.926-12.384-23.847c-9.337-37.617-18.568-75.261-27.939-112.874c-3.384-13.581-1.543-26.458,4.916-38.672
		c14.885-28.127,20.276-57.777,15.446-89.352c-1.491-9.733,5.459-21.717,15.936-25.392c28.628-10.036,65.397-6.602,79.181,30.686
		c17.866,48.321,29.867,98.116,37.345,149.007C907.638,761.706,911.508,777.732,910.589,795.123z"/>
	<path fill="#F9F6F5" d="M755.768,851.876c-0.161,4.515,0.513,9.125-2.48,13.183c-4.375,5.922-9.08,12.472-16.951,11.978
		c-9.893-0.617-16.403-7.759-20.602-16.185c-7.156-14.391-10.021-30.262-14.362-45.598c-4.86-17.188-8.721-34.663-13.55-51.859
		c-3.188-11.369-0.846-21.129,6.86-29.616c6.197-6.812,14.637-11.501,23.333-9.039c8.989,2.544,16.385,8.94,18.312,19.59
		c4.594,25.394,9.648,50.703,14.181,76.103C752.371,830.885,756.16,841.037,755.768,851.876z"/>
</g>
</svg>
