<?xml version="1.0" encoding="utf-8"?>
<!-- Generator: Adobe Illustrator 16.0.0, SVG Export Plug-In . SVG Version: 6.00 Build 0)  -->
<!DOCTYPE svg PUBLIC "-//W3C//DTD SVG 1.1//EN" "http://www.w3.org/Graphics/SVG/1.1/DTD/svg11.dtd">
<svg version="1.1" id="Layer_1" xmlns="http://www.w3.org/2000/svg" xmlns:xlink="http://www.w3.org/1999/xlink" x="0px" y="0px"
	 width="1000px" height="1000px" viewBox="0 0 1000 1000" enable-background="new 0 0 1000 1000" xml:space="preserve">
<g>
	<path fill="#F9F6F5" d="M467.108,267.208c1.054,4.767,2.107,9.535,3.161,14.299c0.377-0.023,0.755-0.048,1.133-0.071
		c0-7.954,0-15.907,0-23.862c0.503-0.063,1.007-0.127,1.511-0.191c1.959,9.632,3.919,19.265,5.879,28.898
		c0.391-0.053,0.781-0.105,1.171-0.158c0-5.388,0-10.779,0-16.169c0.382-0.056,0.766-0.113,1.148-0.167
		c1.182,6.031,2.366,12.063,3.547,18.096c1.205-14.578-0.934-28.99,0.062-43.488c2.208,10.86,2.414,22.061,5.549,33.871
		c1.889-7.265-1.404-14.175,3.105-20.747c2.101,8.039,2.642,15.978,7.135,22.774c0.208-3.106,0.413-6.176,0.709-10.611
		c2.506,5.77,1.329,11.15,4.354,15.446c1.499-14.271-1.763-28.438-0.307-43.03c2.926,14.069,2.577,28.299,6.636,41.966
		c0-5.818,0-11.637,0-17.455c0.419-0.042,0.841-0.084,1.264-0.124c1.337,7.26,2.674,14.521,4.013,21.78
		c0.322-0.011,0.642-0.021,0.966-0.034c0.235-3.232,0.473-6.465,0.708-9.697c0.365-0.036,0.729-0.07,1.096-0.105
		c0.988,5.676,1.884,11.371,3.016,17.018c0.377,1.873-0.345,4.983,1.902,5.258c2.054,0.25,4.549-0.708,6.476-2.535
		c5.562-5.273,9.909-11.384,13.502-18.101c7.629-14.271,16.088-28.003,26.822-40.189c3.418-3.878,7.045-7.523,11.285-10.648
		c9.043-6.669,16.906-3.185,22.225,6.675c6.188,11.469,9.406,23.986,11.768,36.637c3.51,18.797,4.85,37.75,2.639,56.904
		c-1.474,12.758-7.397,23.868-11.881,35.52c-7.562,19.662-12.517,39.92-14.804,60.862c-1.867,17.074,2.7,32.585,10.61,47.494
		c4.611,8.696,7.397,18.08,8.734,27.873c3.121,22.884-10.485,39.352-29.253,49.125c-7.311,3.806-15.655,5.015-23.705,6.994
		c-9.58,2.357-18.989,0.201-28.441,1.205c-3.632,0.384-7.542-1.768-11.312-2.817c-2.314-0.645-4.601-1.375-8.025-0.754
		c6.461,4.647,13.234,6.7,20.094,7.515c13.332,1.583,26.749,1.674,39.989-1.194c2.977-0.645,3.774,0.046,4.695,3.15
		c4.867,16.4,5.991,33.432,9.016,50.134c0.811,4.482,0.395,8.979-3.735,12.155c-2.837,2.184-5.562,2.293-8.402-0.059
		c-3.74-3.1-5.821-7.132-7.011-11.733c-3.518-13.621-7.114-27.221-10.534-40.864c-1.005-4.012-3.749-4.759-7.035-4.081
		c-3.567,0.736-2.984,3.568-2.428,6.205c2.802,13.275,5.61,26.554,8.344,39.845c0.623,3.022,1.19,6.092,1.363,9.163
		c0.26,4.705-3.068,9.684-7.146,10.925c-4.614,1.403-7.615-1.449-10.054-4.585c-4.681-6.023-5.561-13.606-7.538-20.658
		c-3.15-11.234-5.946-22.578-8.505-33.964c-0.881-3.931-3.232-3.734-6.066-3.595c-3.884,0.195-2.665,2.914-2.283,4.899
		c3.182,16.534,6.441,33.056,9.733,49.569c1.08,5.42,1.203,10.3-4.105,14.002c-3.217,2.244-6.002,2.354-8.895,0.027
		c-3.27-2.632-5.675-5.854-6.782-10.064c-3.887-14.78-8.043-29.488-11.79-44.303c-0.919-3.636-2.906-4.2-5.948-3.864
		c-3.716,0.408-2.557,3.232-2.217,5.137c1.871,10.455,3.136,20.998,5.604,31.375c1.606,6.754,1.686,13.908,2.031,20.901
		c0.192,3.86-2.352,6.852-5.491,8.573c-3.759,2.061-6.375-0.898-8.906-3.267c-4.685-4.383-5.835-10.489-7.385-16.197
		c-3.234-11.915-5.854-23.996-8.757-36.002c-0.47-1.946-0.456-4.188-2.92-5.041c-4.473-1.547-7.017,0.42-6.22,5.253
		c2.571,15.586,5.273,31.153,8.024,46.709c0.956,5.397,1.673,10.523-3.379,14.59c-2.864,2.302-5.392,2.527-8.343,0.325
		c-4.251-3.176-6.245-7.617-7.487-12.55c-3.562-14.142-7.089-28.294-10.742-42.412c-0.482-1.862-0.657-4.131-3.243-4.808
		c-4.431-1.155-6.543,0.613-5.678,5.299c2.837,15.358,5.844,30.688,8.734,46.037c0.833,4.42,1.503,8.798-1.836,12.726
		c-3.834,4.512-7.378,4.8-11.816,0.899c-5.48-4.819-6.074-11.786-7.92-18.097c-3.269-11.18-6.005-22.519-8.899-33.807
		c-1.56-6.091-3.319-7.838-7.625-6.465c-4.874,1.555-2.307,5.518-1.846,8.274c2.584,15.395,5.489,30.735,8.277,46.097
		c0.805,4.438,0.406,8.488-3.114,11.878c-3.147,3.031-6.289,3.079-9.734,0.712c-5.083-3.492-6.7-8.99-8.137-14.474
		c-3.561-13.604-7.07-27.223-10.307-40.904c-0.842-3.565-2.672-4.464-5.833-4.007c-3.864,0.559-2.722,3.459-2.338,5.612
		c2.723,15.205,5.604,30.379,8.382,45.573c0.338,1.848,0.585,3.768,0.468,5.63c-0.542,8.652-8.97,12.661-16.617,8.793
		c-14.475-7.326-19.208-20.758-22.844-34.875c-4.406-17.119-8.852-34.252-11.31-51.798c-1.108-7.897-0.955-15.921,1.549-23.451
		c3.615-10.88,12.117-16.715,22.975-19.241c12.504-2.909,25.046-5.658,37.582-8.431c5.05-1.116,8.955-4.138,12.786-7.351
		c1.801-1.514,1.647-2.871-0.217-4.085c-4.584-2.984-6.8-7.164-6.335-12.626c0.261-3.054-1.683-2.769-3.626-2.661
		c-7.723,0.427-15.445,0.844-23.167,1.268c-2.165,0.12-4.324,0.679-5.638,0.023c4.918-1.017,10.745-1.914,16.367-3.535
		c2.105-0.606,4.307-2.009,5.915-3.942c1.253-1.509,3.216-1.693,5.054-1.902c3.033-0.344,5.958-0.986,9.878-3.328
		c-14.748,1.093-28.113,2.083-40.965,3.036c13.36-3.778,28.014-3.165,41.817-7.817c-6.243-1.971-12.62-2.044-20.495-2.428
		c6.593-2.697,12.214-1.066,17.485-2.729c-15.426-1.663-31.058-0.998-46.418-3.967c17.827-1.131,35.654-2.265,53.481-3.396
		c0.007-0.647,0.011-1.296,0.018-1.942c-12.02,0-24.037,0-36.055,0c0.002-0.596,0.004-1.193,0.007-1.789
		c11.817-1.167,23.623-2.491,35.462-3.384c2.63-0.199,4.044-0.583,4.802-3.255c5.865-20.688,7.31-41.574,2.238-62.575
		c-4.073-16.879-9.262-33.388-18.113-48.553c-8.413-14.41-9.798-30.783-11.964-46.801c-1.932-14.278-3.452-28.638-2.593-43.136
		c0.356-6.04,1.255-12.003,2.642-17.811c3.424-14.319,12.93-24.218,30.909-13.828c14.624,8.456,26.31,20.258,37.634,32.525
		c7.565,8.192,13.392,17.875,21.913,25.27c2.078,1.803,2.265,2.85,3.17-0.871c1.535-6.303,0.657-12.601,1.213-18.87
		c0.302-3.407,0.055-6.862,0.055-10.294C466.648,267.33,466.878,267.269,467.108,267.208z M503.005,498.281
		c7.752,0.376,15.067-1.284,21.251-5.84c10.834-7.982,11.303-16.83,0.513-25.587c-1.141-0.923-2.854-1.1-4.138-1.89
		c-10.434-6.405-21.324-5.6-31.864-1.036c-6.658,2.884-12.046,7.464-11.992,16.217c0.05,7.787,5.296,11.421,10.711,14.372
		C492.102,497.032,497.442,498.783,503.005,498.281z M457.23,377.31c-7.181-0.062-13.954,2.712-17.477,7.116
		c-4.139,5.178-2.808,10.447,3.504,12.485c8.028,2.59,15.088,0.055,21.337-5.104c2.812-2.324,5.566-5.055,3.885-9.146
		c-1.717-4.178-5.47-5.37-9.706-5.354C458.259,377.312,457.744,377.31,457.23,377.31z M552.181,393.977
		c2.644,0.016,5.133-0.206,7.521-1.503c4.5-2.445,5.577-5.64,3.183-10.166c-4.062-7.67-19.253-11.744-26.494-7.103
		c-4.013,2.571-4.272,5.178-1.873,9.332C538.526,391.483,544.982,393.332,552.181,393.977z"/>
	<path fill="#F9F6F5" d="M687.4,584.867c0.64,5.8-0.532,11.333-4.397,16.563c-3.026,4.1-6.862,6.872-11.431,6.593
		c-5.134-0.314-8.401-4.527-9.914-9.374c-2.452-7.86-4.576-15.828-6.754-23.774c-2.268-8.271-4.457-16.563-6.634-24.856
		c-0.917-3.501-2.481-6.18-6.707-5.41c-4.483,0.818-3.856,4.179-3.26,7.266c2.881,14.83,5.83,29.647,8.785,44.462
		c0.672,3.368,1.309,6.696,1.272,10.188c-0.045,4.12-2.473,6.102-5.7,7.69c-3.326,1.636-5.965,0.233-8.465-1.849
		c-3.369-2.807-4.593-6.741-5.592-10.769c-4.217-16.987-8.386-33.987-12.617-50.974c-1.528-6.133-0.697-11.947,2.22-17.464
		c6.722-12.701,9.156-26.092,6.976-40.35c-0.674-4.396,2.465-9.807,7.196-11.466c12.928-4.532,29.533-2.981,35.757,13.857
		c8.068,21.822,13.488,44.309,16.864,67.291C686.068,569.777,687.816,577.015,687.4,584.867z"/>
	<path fill="#F9F6F5" d="M337.127,846.281c6.119-4.934,10.581-9.062,15.568-12.406c5.617-3.764,9.488-1.438,10.432,5.238
		c0.59,4.161-2.262,10.146,1.4,12.071c4.11,2.156,6.813-3.846,10.181-6.217c1.753-1.233,3.516-2.57,4.68,0.601
		c2.241,6.089,3.659,2.038,5.468-0.349c6.602-8.698,14.783-15.336,25.375-18.547c3.627-1.1,7.58-2.371,9.766,2.547
		c1.102,2.479,2.333,2.043,3.87,0.32c1.763-1.978,4.059-2.375,6.125-0.751c2.601,2.042,1.291,4.686,0.245,6.954
		c-2.231,4.85-6.247,9.16-4.369,16.34c4.304-3.862,7.98-7.195,11.695-10.482c0.885-0.776,1.693-2.227,3.155-1.329
		c1.643,1.009,1.046,2.477,0.627,4.03c-1.69,6.263-11.835,15.587-17.893,15.909c-3.491,0.184-5.729-1.846-6.262-5.337
		c-0.375-2.452-0.438-4.95-0.714-8.319c-5.455,4.542-10.659,8.271-15.082,12.767c-3.034,3.084-6.6,4.677-10.383,5.81
		c-6.376,1.904-9.588-1.104-9.917-7.545c-0.311-6.104-3.017-7.023-7.684-3.493c-2.42,1.831-4.741,3.792-7.162,5.622
		c-1.893,1.433-3.229,4.383-6.374,2.753c-2.979-1.542-5.669-3.282-5.819-7.281c-0.157-4.249-0.707-8.482-1.167-13.594
		c-6.83,4.017-10.386,10.588-15.459,15.569c-1.539,1.514-2.268,4.539-5.123,3.782c-2.889-0.768-3.457-3.823-3.651-6.153
		c-0.4-4.782-0.031-9.624-0.093-14.438c-0.017-1.184-0.065-2.867-0.795-3.437c-1.452-1.133-2.846,0.22-3.947,1.208
		c-7.537,6.758-13.898,14.593-20.406,22.305c-1.545,1.834-2.479,6.36-6.036,3.309c-2.281-1.959-3.677-5.148-1.856-8.813
		c2.52-5.065,7.603-8.599,7.892-15.566c-5.136,3.934-10.417,7.697-15.37,11.854c-5.437,4.564-10.411,9.771-17.104,12.524
		c-6.166,2.538-8.822,0.744-10.035-5.801c-1.279-6.896,3.36-12.409,4.416-19.323c-8.242,1.407-12.943,7.212-18.305,11.973
		c-4.543,4.033-8.878,8.325-13.614,12.114c-6.485,5.195-13.712,2.273-15.115-5.992c-0.505-2.982-0.422-6.062-0.624-9.099
		c-0.14-2.149,1.325-5.254-1.272-6.066c-1.682-0.523-4.456,0.854-6.132,2.163c-7.538,5.896-14.784,12.167-22.308,18.086
		c-2.073,1.632-3.907,5.621-7.522,2.352c-2.948-2.661-2.225-6.279-0.949-9.188c1.179-2.685,3.627-4.822,5.569-7.156
		c0.984-1.179,1.968-2.305,1.36-4.685c-5.756,0.551-8.243,6.028-12.555,8.53c-2.167,1.253-4.043,2.997-6.066,4.495
		c-3.653,2.699-7.544,4.533-11.889,1.72c-4.285-2.774-5.616-7.077-5.083-11.929c0.462-4.207,1.26-8.382,0.329-13.347
		c-3.556,5.191-7.106,10.386-10.668,15.568c-3.873,5.638-7.339,11.643-12.654,16.086c-4.053,3.386-8.127,6.809-14.256,3.93
		c-6.207-2.915-9.248-7.36-9.269-14.209c-0.034-10.334,2.777-20.013,7.32-29.043c9.71-19.295,23.1-35.47,42.006-46.554
		c1.751-1.025,3.544-2.01,5.406-2.802c8.292-3.521,12.925-0.316,12.487,8.593c-0.165,3.311-0.481,6.659-2.125,9.585
		c-1.648,2.924-2.917,5.118,1.704,6.682c2.647,0.897,1.669,3.595,1.231,5.958c-2.364,12.688-8.859,24.076-11.379,36.693
		c-0.466,2.325-2.482,5.268,0.295,6.831c2.243,1.267,4.887-0.419,6.948-2.008c6.017-4.637,11.932-9.342,18.371-13.469
		c7.342-4.707,11.081-3.588,12.434,5.16c0.143,0.925,0.115,1.877,0.224,3.827c5.57-3.584,10.212-6.917,15.183-9.646
		c3.233-1.777,6.936-3.9,10.662-0.922c3.55,2.841,4.18,6.757,3.497,11.037c-0.239,1.502-0.223,3.05-0.496,4.543
		c-0.484,2.637-2.501,5.732,0.8,7.535c3.29,1.797,4.894-1.875,6.814-3.447c9.213-7.553,18.244-15.325,28.264-21.831
		c2.641-1.713,4.986-4.884,8.707-2.114c3.358,2.501,3.057,5.793,2.561,9.541c-0.711,5.357-5.974,9.688-3.188,16.633
		c7.066-5.104,13.893-10.001,20.676-14.947c3.075-2.244,5.945-4.788,9.129-6.852c7.233-4.692,9.049-3.953,11.746,4.959
		c4.482-3.063,8.602-6.372,13.163-8.863c6.604-3.606,9.756-1.683,10.349,5.909C337.334,838.164,337.127,841.413,337.127,846.281z
		 M113.895,852.904c0.512,2.722-0.956,6.125,2.271,7.603c2.87,1.312,4.559-1.498,6.464-2.983c1.989-1.553,3.985-3.2,5.58-5.135
		c13.715-16.602,26.041-34.194,37.277-52.562c0.537-0.876,1.536-2.021,0.686-2.563c-5.862-3.746-1.903-6.631,0.651-9.711
		c1.216-1.464,1.93-3.381,0.869-4.924c-1.489-2.154-3.897-1.146-5.458-0.097c-4.388,2.938-8.508,6.276-12.788,9.382
		c-9.974,7.227-16.248,17.47-22.433,27.72C120.771,829.985,114.519,840.411,113.895,852.904z M416.197,837.335
		c-12.729-1.532-19.826,5.896-25.954,14.874c-0.95,1.39-2.073,3.109-0.497,4.782c1.021,1.082,2.368,0.626,3.46-0.018
		C401.972,851.827,411.024,846.99,416.197,837.335z"/>
	<path fill="#F9F6F5" d="M618.297,800.847c8.727,0.346,15.137-3.032,19.546-10.541c1.359-2.32,3.165-5.512,6.112-5.007
		c3.334,0.572,3.153,4.007,2.908,6.877c-0.331,3.914,2.492,3.215,4.6,2.796c3.46-0.682,6.817-1.852,10.252-2.668
		c1.81-0.429,3.581-0.272,4.456,1.821c0.813,1.952-1.3,2.401-1.781,3.537c-3.181,7.476-10.212,4.755-15.529,5.751
		c-4.772,0.894-7.33,3.242-10.163,6.852c-6.787,8.643-13.449,17.011-13.85,28.79c-0.143,4.158-0.469,7.973,1.865,11.684
		c1.039,1.654,1.675,3.716,1.933,5.662c0.345,2.608-0.234,5.56-2.948,6.395c-3.053,0.937-4.417-1.938-5.431-4.211
		c-3.661-8.255-2.239-16.852-1.273-25.381c-3.136-0.785-4.333,1.784-5.386,3.429c-6.04,9.456-16.307,12.345-25.699,15.892
		c-7.003,2.645-13.023,6.593-19.242,10.317c-9.465,5.673-19.348,9.931-30.271,11.816c-3.546,0.61-7.298,0.866-8.393-2.833
		c-0.987-3.342,2.969-4.181,5.396-5.284c10.149-4.618,20.356-9.113,30.531-13.683c1.599-0.716,3.595-1.194,4.616-2.433
		c4.017-4.862,12.55-7.782,10.729-15.227c-1.76-7.188-10.158-7.438-16.278-9.354c-7.715-2.411-15.782-3.752-23.372-6.465
		c-9.787-3.494-11.191-8.884-5.108-17.445c8.936-12.577,22.163-18.798,35.996-24.302c10.391-4.129,21.033-4.806,31.765-3.127
		C618.33,776.707,623.962,787.594,618.297,800.847z M615.221,802.308c-0.344-3.093-3.935-3.938-2.688-6.074
		c5.408-9.275-2.399-9.688-7.528-10.694c-20.778-4.076-38.484,4.034-55.207,15.093c-3.97,2.624-9.661,6.472-8.52,10.607
		c1.31,4.741,8.144,4.918,13.17,5.231c11.42,0.71,22.501,2.991,33.196,6.977c5.794,2.158,8.323,6.392,6.582,12.632
		c-0.593,2.123-1.315,4.208-2.468,7.85c16.481-8.147,26.536-20.351,34.424-35.108c-11.972,2.259-23.465,5.324-34.91,8.558
		c-1.796,0.509-3.38,2.881-5.226,0.366c-1.558-2.122-1.13-4.319,0.391-6.333c1.998-2.646,5.024-3.215,8.001-3.941
		C601.323,805.796,608.192,804.058,615.221,802.308z"/>
	<path fill="#F9F6F5" d="M823.164,840.99c-8.581,4.105-13.54,10.865-20.282,15.212c-4.143,2.669-8.766,7.476-13.585,4.162
		c-5.244-3.602-3.7-9.956-1.898-15.423c1.006-3.062,2.175-6.07,3.574-9.937c-4.979,0.438-7.896,2.783-10.747,5.606
		c-4.13,4.097-8.188,8.362-12.827,11.819c-9.518,7.087-16.563,4.024-18.652-7.643c-0.215-1.201-0.748-2.346-1.44-4.447
		c-5.495,6.113-10.316,11.876-15.586,17.196c-3.652,3.69-7.521,8.369-13.716,5.035c-4.72-2.542-5.878-9.946-2.979-16.5
		c4.073-9.221,9.347-17.559,18.562-22.424c4.537-2.393,9.011-5.424,14.669-1.271c3.178,2.33,4.812-1.325,5.734-3.892
		c4.602-12.788,12.034-23.97,19.899-34.863c2.039-2.827,3.94-7.729,8.688-5.468c5.144,2.453,2.52,7.003,1.256,10.695
		c-4.975,14.521-13.979,26.789-22.229,39.483c-2.566,3.948-3.604,8.416-3.708,13.026c-0.057,2.659-1.133,6.348,1.496,7.705
		c2.736,1.418,4.998-1.604,6.947-3.463c7.149-6.812,14.332-13.549,22.892-18.646c2.803-1.67,5.147-4.456,8.851-2.191
		c3.929,2.403,2.666,5.915,2.377,9.496c-0.318,3.99-3.385,6.835-3.732,10.668c-0.151,1.701-1.384,3.771,0.195,5.056
		c1.771,1.442,3.306-0.483,4.637-1.419c9.938-6.972,19.741-14.144,29.725-21.054c5.055-3.501,10.951-5.923,16.949-5.809
		c8.438,0.165,14.276,12.062,11.232,21.706c-3.691,11.697-12.999,17.179-23.878,20.127c-6.266,1.692-14.323-6.91-13.754-13.865
		C822.037,847.2,822.575,844.758,823.164,840.99z M768.98,807.108c4.729-4.104,8.027-9.021,8.882-15.332
		c-3.411,4.214-6.264,8.757-9,13.363c-0.288,0.484,0.105,1.369,0.184,2.063c-0.289,0.104-0.574,0.215-0.86,0.32
		c0.149,0.05,0.373,0.187,0.427,0.137C768.773,807.519,768.862,807.298,768.98,807.108z M849.785,831.22
		c-10.87,2.104-18.93,10.843-19.016,20.513c-0.02,2.256-0.373,4.76,2.149,6.06c2.307,1.188,4.407,0.262,6.464-0.925
		c8.915-5.11,11.662-11.425,9.712-22.021C848.893,833.739,849.525,832.479,849.785,831.22z M747.762,830.158
		c-11.685,0.961-23.345,10.507-25.971,20.348c-0.396,1.489-0.787,3.08,0.518,4.241c1.828,1.626,3.355,0.071,4.665-0.925
		C735.25,847.529,742.201,840.061,747.762,830.158z"/>
	<path fill="#F9F6F5" d="M617.485,610.497c-0.073,2.038,0.231,4.12-1.12,5.953c-1.977,2.674-4.101,5.632-7.655,5.409
		c-4.468-0.278-7.408-3.504-9.304-7.31c-3.231-6.498-4.525-13.666-6.485-20.592c-2.195-7.762-3.938-15.652-6.119-23.419
		c-1.44-5.134-0.382-9.541,3.098-13.374c2.799-3.075,6.61-5.193,10.537-4.082c4.06,1.149,7.399,4.038,8.27,8.847
		c2.074,11.468,4.357,22.896,6.403,34.367C615.951,601.018,617.662,605.602,617.485,610.497z"/>
	<path fill="#F9F6F5" d="M654.622,271.5c-0.924-16.866,14.186-35.531,35.69-34.918c19.898,0.567,34.777,15.583,34.618,35.787
		c-0.159,20.164-15.506,34.666-35.907,34.966C668.581,307.638,652.922,288.121,654.622,271.5z M689.639,304.653
		c17.63-0.149,32.652-13.963,32.825-32.668c0.166-17.953-14.898-32.937-32.766-32.825c-17.665,0.112-32.589,14.856-32.839,32.452
		C656.609,289.212,671.936,304.662,689.639,304.653z"/>
	<path fill="#F9F6F5" d="M482.296,836.233c1.461,6.083-0.354,9.703-3.633,12.785c-3.864,3.635-8.099,6.913-11.652,10.819
		c-4.301,4.725-9.707,4.86-14.417,2.669c-4.493-2.088-5.653-7.311-5.601-12.335c0.17-16.642,7.873-30.516,16.431-43.986
		c5-7.865,10.582-15.362,15.82-23.083c2.736-4.033,6.514-5.694,10.976-4.054c4.615,1.697,4.141,5.1,2.75,9.356
		c-6.026,18.426-18.02,33.225-28.948,48.669c-1.6,2.256-2.625,5.118-6.545,5.647c-2.985,0.405-4.18,10.081-1.729,12.935
		c2.945,3.435,5.635,0.005,7.68-1.315C470.445,849.811,475.162,842.674,482.296,836.233z M486.229,789.986
		c-9.894,11.821-20.248,23.458-24.859,38.748C471.172,816.836,481.791,805.489,486.229,789.986z"/>
	<path fill="#F9F6F5" d="M694.034,851.555c6.674-2.623,9.981-7.283,14.141-10.863c1.291-1.114,2.629-2.873,4.516-1.194
		c2.058,1.837,1.087,3.851-0.562,5.225c-6.196,5.165-12.539,10.154-18.795,15.245c-1.717,1.395-3.39,1.239-4.698-0.29
		c-2.233-2.609-5.555-4.702-4.812-8.95c0.549-3.151,2.314-6.164,1.129-9.944c-8.134,5.112-14.022,12.53-21.386,18.172
		c-2.781,2.128-5.256,6.998-9.182,2.589c-3.332-3.744-7.82-7.653-5.4-13.9c0.867-2.25,3.033-3.999,2.742-6.724
		c-0.574-0.131-1.035-0.363-1.465-0.311c-2.514,0.311-4.894,4.986-7.094,1.699c-2.374-3.547,1.412-5.676,4.214-7.523
		c3.386-2.231,6.55-4.816,10.026-6.888c2.718-1.611,5.616-2.279,8.127,0.883c2.06,2.594,2.846,4.643,0.968,8.103
		c-2.65,4.891-7.659,8.871-7.137,16.399c7.925-4.942,14.105-10.752,20.227-16.648c2.917-2.808,5.799-5.659,8.853-8.312
		c3.045-2.646,5.778-1.811,8.765,0.667c2.845,2.361,3.63,4.68,1.854,7.875C696.729,841.071,695.378,845.6,694.034,851.555z"/>
	<path fill="#F9F6F5" d="M282.676,811.024c-3.382-0.831-4.788-2.95-5.098-6.001c-0.332-3.293,1.862-4.906,4.435-4.924
		c2.839-0.021,4.267,2.62,4.5,5.188C286.76,808.045,284.963,809.879,282.676,811.024z"/>
	<path fill="#F9F6F5" d="M807.155,806.997c-3.209-0.723-4.313-3.097-4.363-6.107c-0.056-3.229,2.163-4.718,4.869-4.402
		c2.799,0.321,4.062,2.805,4.059,5.529C811.71,804.855,810.385,806.81,807.155,806.997z"/>
	<path fill="#AA2483" d="M768.98,807.108c-0.118,0.188-0.207,0.409-0.369,0.553c-0.054,0.05-0.276-0.087-0.427-0.138
		c0.286-0.104,0.571-0.215,0.86-0.316C769.048,807.207,768.98,807.108,768.98,807.108z"/>
	<path fill="#F9F6F5" d="M693.346,252.558c3.479,0.328,6.936-0.265,10.517,0.664c2.615,0.678,3.849,1.854,4.386,4.018
		c0.673,2.709-0.716,4.475-3.149,5.705c-4.341,2.196-9.126,2.666-13.747,3.776c-1.163,0.279-2.408,0.319-3.506,0.745
		c-4.934,1.915-5.636,6.287-1.591,9.561c4.933,3.99,9.916,7.924,14.772,12.005c0.996,0.837,3.175,1.761,1.461,3.608
		c-1.338,1.449-2.824,0.59-4.036-0.584c-4.135-4.004-8.249-8.033-12.403-12.017c-4.466-4.282-4.62-4.194-6.726,1.538
		c-0.493,1.343,0.386,4.276-2.378,3.573c-2.609-0.664-2.191-3.092-1.444-5.155c1.122-3.092,4.882-5.747,1.261-9.609
		c-0.63-0.67,0.838-1.915,1.729-2.158c4.68-1.274,6.186-5.002,7.252-9.077c0.256-0.982,0.08-2.256,1.488-2.25
		c1.376,0.004,2.431,1.095,2.245,2.309c-0.76,4.954,2.67,3.579,5.167,3.574c3.386-0.004,6.068-2.172,9.166-3.09
		c1.981-0.588,1.234-1.925,0.151-2.562c-1.733-1.018-3.692-2.359-5.547-2.347c-7.144,0.052-14.774-2.597-21.093,3.157
		c-0.91,0.826-2.069,0.755-2.594-0.357c-0.599-1.269-0.038-2.162,1.419-2.685C681.723,252.902,687.451,252.185,693.346,252.558z"/>
</g>
</svg>
